<?xml version="1.0" encoding="iso-8859-1"?>
<!-- Generator: Adobe Illustrator 19.0.0, SVG Export Plug-In . SVG Version: 6.00 Build 0)  -->
<svg version="1.1" id="Capa_1" xmlns="http://www.w3.org/2000/svg" xmlns:xlink="http://www.w3.org/1999/xlink" x="0px" y="0px"
	 viewBox="0 0 512 512" style="enable-background:new 0 0 512 512;" xml:space="preserve">
<path style="fill:#808080;" d="M242.743,129.444c35.723,0,64.736,8.77,89.771,27.169c2.643,1.942,6.368,0.067,6.368-3.211V38.109
	c0-1.615-0.965-3.077-2.458-3.694C307.969,22.639,275.289,13.5,242.743,13.5C108.659,13.5,0,122.071,0,256.003
	C0,389.94,108.659,498.5,242.743,498.5c32.568,0,65.202-8.418,93.676-20.141c1.496-0.616,2.463-2.081,2.463-3.697V351.861
	c-27.165,20.971-59.687,30.688-96.139,30.688c-69.985,0-126.703-56.656-126.703-126.547S172.758,129.444,242.743,129.444z"/>
<g>
	<path style="fill:#6E6E6E;" d="M307.976,488.403c9.81-2.904,19.341-6.3,28.441-10.044c1.496-0.616,2.464-2.081,2.464-3.698V359.719
		c0-3.224-3.615-5.111-6.271-3.282c-7.812,5.381-16.035,9.891-24.635,13.57v118.396H307.976z"/>
	<path style="fill:#6E6E6E;" d="M242.743,129.444c12.368,0,23.928,1.056,34.801,3.194c-19.271-9.53-40.864-14.147-65.706-14.147
		c-69.985,0-126.704,61.572-126.704,137.511c0,75.94,56.719,137.499,126.704,137.499c24.19,0,46.646-4.656,66.957-14.442
		c-11.517,2.347-23.553,3.49-36.051,3.49c-69.985,0-126.704-56.656-126.704-126.547
		C116.039,186.112,172.758,129.444,242.743,129.444z"/>
	<path style="fill:#6E6E6E;" d="M307.976,24.157V142.25c8.614,3.88,16.765,8.656,24.533,14.362c2.645,1.943,6.373,0.072,6.373-3.209
		V38.11c0-1.615-0.965-3.078-2.458-3.695C327.327,30.653,317.793,27.17,307.976,24.157z"/>
</g>
<g>
	<path style="fill:#FCBA30;" d="M364.589,50.838c-2.622-2.098-6.505-0.24-6.505,3.117v202.069v202.049
		c0,3.356,3.883,5.214,6.505,3.117c22.46-17.968,98.009-84.144,146.158-195.981c0,0,1.108-2.714,1.253-9.196
		c-0.145-6.449-1.253-9.196-1.253-9.196C462.598,134.999,387.05,68.811,364.589,50.838z"/>
	<polygon style="fill:#FCBA30;" points="512,256.003 512,256.013 512,256.024 	"/>
</g>
<g>
	<path style="fill:#D1851C;" d="M358.084,53.955v18.278c32.923,31.175,85.226,89.745,121.757,174.584c0,0,1.108,2.746,1.253,9.196
		c0-0.004,0-0.007,0-0.011v0.022c0-0.004,0-0.007,0-0.011c-0.145,6.482-1.253,9.196-1.253,9.196
		c-36.531,84.853-88.834,143.419-121.757,174.59v18.275c0,3.356,3.883,5.215,6.505,3.117
		c22.46-17.969,98.009-84.144,146.158-195.981c0,0,1.108-2.714,1.253-9.196c-0.145-6.45-1.253-9.196-1.253-9.196
		C462.598,134.999,387.05,68.811,364.589,50.838C361.968,48.74,358.084,50.598,358.084,53.955z"/>
	<polygon style="fill:#D1851C;" points="512,256.003 512,256.014 512,256.024 	"/>
</g>
<g>
</g>
<g>
</g>
<g>
</g>
<g>
</g>
<g>
</g>
<g>
</g>
<g>
</g>
<g>
</g>
<g>
</g>
<g>
</g>
<g>
</g>
<g>
</g>
<g>
</g>
<g>
</g>
<g>
</g>
</svg>
