<?xml version="1.0" encoding="iso-8859-1"?>
<!-- Generator: Adobe Illustrator 19.0.0, SVG Export Plug-In . SVG Version: 6.00 Build 0)  -->
<svg version="1.1" id="Capa_1" xmlns="http://www.w3.org/2000/svg" xmlns:xlink="http://www.w3.org/1999/xlink" x="0px" y="0px"
	 viewBox="0 0 512 512" style="enable-background:new 0 0 512 512;" xml:space="preserve">
<g>
	<g>
		<path style="fill:#E82934;" d="M405.13,397.46c-1.87-3.49-5.15-5.63-8.85-6.98c-21.13-7.78-65.3,9.61-82.83-5.26
			c-9.16-7.77-3.94-24.09-13.03-32.15c1.43,40.78-14.24,65.86-20.03,73.69c-0.72,0.97-2.27,0.54-2.38-0.67
			c-0.16-1.8-0.37-3.94-0.57-5.33c-0.1-0.68-0.82-1.07-1.44-0.78c-0.52,0.25-1.18,0.56-1.85,0.91c-1.6,0.83-2.89,2.16-3.64,3.8
			c-3.6,7.89-7.23,15.78-10.82,23.66c-4.32,8.81-10.16,16.63-16.8,24.2c-1.55,0-1.1,0.93-1.1,2.21c23.74,0,43.72,0.66,66.37-4.39
			C329.31,465.6,422.55,430.47,405.13,397.46z M283.76,301.09c-27.13-2.33-47.84-21.84-54.58-49.66c-0.17-0.68-0.97-1.01-1.54-0.6
			c-5.75,4.13-6.89,13.37-5.5,23.32c2.31,16.58,1.48,22.83,18.2,35.65c9.19,3.24,32.99-3.44,43.65-6.76
			C285.05,302.72,284.86,301.19,283.76,301.09z M355.55,275.46c-7.31,0.23-14.65,0.43-21.95,0.65
			c-49.02-7.12-54.03-44.75-79.28-64.29c-0.76-0.59-1.85,0.14-1.58,1.07c10.67,37.11,30.57,75.15,63.73,77.09
			c11.55,0.68,24.7-3.03,39.65-12.67C356.97,276.76,356.56,275.43,355.55,275.46z M380.87,250.33c-2.52-1.48-6.72-3.55-9.15-4.39
			c-34.03-17.59-52.87-68.13-96.97-64.18c-1.01,0.09-1.25,1.48-0.33,1.91c10.01,4.62,20.69,7.7,23.81,18.64
			c26.68,27.32,36.54,55.67,82.25,49.87C381.43,252.06,381.7,250.81,380.87,250.33z M199.75,103.07c0,0.76-0.12,21.04,13.16,16.04
			c13.29-5,22.24-26.73,22.24-27.11C232.93,92,200.13,103.07,199.75,103.07z M259.21,36.4h-0.04c-1.24-0.03-2.48-0.04-3.72-0.04
			c-121.04,0-219.76,98.72-219.76,219.76c0,20.6,6.1,58.24,11.97,69.74c2.07-2.13,12.02-10.32,14-11.5
			c58.75-35,121.25-3.19,140.67,54.67c6.7,19.96-4.48,40.38-9.03,47.51c-1.04,1.62-2.92,2.47-4.82,2.17l-21.21-3.35
			c-0.51-0.08-1.02-0.02-1.49,0.16l-15.87,6.16c-0.59,0.23-1.09,0.64-1.42,1.18L139.26,438c-0.84,1.37-0.39,3.16,0.99,3.97
			l19.35,11.42c1.34,0.8,3.08,0.37,3.9-0.97c2.13-3.47,5.92-9.6,6.85-10.84c0.65-0.88,2.35-1.48,3.89-1.86
			c1.53-0.38,2.9-0.54,2.9-0.54c10.09,0.24,23.41,7.92,30.28,0.49c37.62-40.67,12.93-96.56-1.01-113.31
			c-33.27-40.01-64-50.5-89.5-52.75c-11.5-1.02-23.22,1.99-36.66,6.39c-0.52,0.17-1.1,0.02-1.43-0.41
			c-1.35-1.72-3.08-4.83-4.54-7.43c-0.26-0.47-0.79-0.72-1.33-0.63h-0.01c-0.48,0.08-0.87,0.42-1.01,0.88
			c-1.43,4.67-4.11,13.81-8.7,16.03c-5.5,0-6.35-17.58-6.1-26.83c0.05-1.94,9.03-15,28.53-19.75c29.32-7.14,50-1.75,73.06,5.02
			c1.23,9.7,4.71,17.95,8.72,21.96c3.47,3.47,9.42,0.38,8.75-4.48c-1.85-13.46,4.65-30.25,25.32-46.66
			c7.74-6.15,16.15-10.82,21.4-19.6c8.85-14.9,6.53-34.61,20.53-46.95c9.65-8.54,33.77-16.91,46.68-28.48
			c3.72-3.34-0.27-7.16-5.19-12.06c-20.14,4.52-56.07,21.25-67.48,34.26c-9.47,10.72-9.94,23.62-17.3,35.24
			c-2.81,4.38-29.12,27.7-33.32,27.7c2.17-11.35-12.58-29.7-13.19-36.91h1.11c0,3.21,23.88,14.44,29.3-3.02
			c5.71-19.33-20.97-49.35-38.12-33.49c-5.22,4.66-2.14,16.49-1.55,22.71c-0.69-0.62-0.49-0.42-1.11-1.11
			c-3.08-3.59-6.15-7.19-9.23-10.78c-17.56-16.33-15.07-23.58-6.4-29.6c7.65-5.31,36.68-20.11,39.17-22.22
			c1.9-2.53,1.9-10.03,1.9-10.41c12.52-4.53,25-9.09,37.48-13.62c24-6.45,76.85-10.54,85.32-11.17c0.7-0.05,1.38,0.28,1.77,0.87
			c3.27,4.94,19.32,28.1,44.41,46.58c1.29,0.94,1.02,2.92-0.47,3.47c-4.62,1.69-10.4,6.02-13.57,7.23
			c-3.99,1.52,7.35,6.52,7.35,6.52s25.54,10.37,43.38,33.45c0.45,0.58-0.11,1.41-0.82,1.22c-4.08-1.08-8.83-2.82-13.48-3.17
			c-1.52-0.12-2.61,1.51-1.93,2.87c4.15,8.3,13.84,16.01,20.01,27.07c9.35,16.76,21.76,58.28,52.55,69.86
			c1.57,0.59,1.74,2.73,0.3,3.56c-3.94,2.28-24.7,10.021-32.46,12.18c-0.49,0.13-0.79,0.61-0.71,1.12
			c1.43,9.69,27.09,22.68,47.04,31.4c0.45,0.19,0.95,0.4,1.47,0.64c12.24,5.29,21.99,8.86,21.99,8.86
			c4.3-17.17,6.87-37.77,6.87-55.8C475.21,136.34,378.53,38.41,259.21,36.4z"/>
		<path style="fill:#E82934;" d="M199.75,103.07c0.38,0,33.18-11.07,35.4-11.07c0,0.38-8.95,22.11-22.24,27.11
			C199.63,124.11,199.75,103.83,199.75,103.07z"/>
	</g>
	<g>
		<path style="fill:#C7232C;" d="M259.21,36.4h-0.04c107.81,14.91,190.82,107.44,190.82,219.35c0,15.73-1.99,31.87-5.11,46.67
			c0.45,0.19,0.95,0.4,1.47,0.64c12.24,5.29,21.99,8.86,21.99,8.86c4.3-17.17,6.87-37.77,6.87-55.8
			C475.21,136.34,378.53,38.41,259.21,36.4z"/>
		<path style="fill:#C7232C;" d="M199.75,103.07c0.38,0,33.18-11.07,35.4-11.07c0,0.38-8.95,22.11-22.24,27.11
			C199.63,124.11,199.75,103.83,199.75,103.07z"/>
		<path style="fill:#C7232C;" d="M308.16,470.37c-16.14,3.59-30.91,4.3-46.67,4.41c56.66-8.46,106.31-38.38,140.4-81.21
			c1.3,1.06,2.41,2.34,3.24,3.89C422.55,430.47,329.31,465.6,308.16,470.37z"/>
	</g>
</g>
<path style="fill:#C7232C;" d="M256,512C114.841,512,0,397.158,0,255.999C0,114.841,114.841,0,256,0s256,114.841,256,255.999
	C512,397.158,397.159,512,256,512z M256,15C123.112,15,15,123.111,15,255.999C15,388.888,123.112,497,256,497
	c132.887,0,241-108.112,241-241.001C497,123.111,388.888,15,256,15z"/>
<g>
</g>
<g>
</g>
<g>
</g>
<g>
</g>
<g>
</g>
<g>
</g>
<g>
</g>
<g>
</g>
<g>
</g>
<g>
</g>
<g>
</g>
<g>
</g>
<g>
</g>
<g>
</g>
<g>
</g>
</svg>
