<?xml version="1.0" encoding="iso-8859-1"?>
<!-- Generator: Adobe Illustrator 19.0.0, SVG Export Plug-In . SVG Version: 6.00 Build 0)  -->
<svg version="1.1" id="Capa_1" xmlns="http://www.w3.org/2000/svg" xmlns:xlink="http://www.w3.org/1999/xlink" x="0px" y="0px"
	 viewBox="0 0 512 512" style="enable-background:new 0 0 512 512;" xml:space="preserve">
<circle style="fill:#E82934;" cx="256" cy="256" r="243.73"/>
<g>
	<path style="fill:#CCCCCC;" d="M307.174,182.656L193.142,380.923c-0.551,0.959-1.573,1.55-2.679,1.55h-35.666
		c-2.366,0-3.854-2.55-2.691-4.61l63.455-112.382l-45.658-82.874c-1.135-2.06,0.355-4.582,2.707-4.582h33.767
		c1.12,0,2.152,0.606,2.698,1.584l24.651,44.148c1.176,2.106,4.204,2.113,5.39,0.013l24.941-44.173
		c0.548-0.971,1.576-1.571,2.691-1.571h37.747C306.872,178.024,308.359,180.595,307.174,182.656z"/>
	<path style="fill:#CCCCCC;" d="M256,0C114.613,0,0,114.613,0,256s114.613,256,256,256s256-114.613,256-256S397.386,0,256,0z
		 M256,480.912c-97.554,0-180.613-62.129-211.747-148.966h85.228c0,0,27.823-1.061,30.901-26.831
		c3.207-26.808-11.078-39.635-11.078-39.635l-43.739-33.641c-1.672-1.298-2.285-3.626-1.18-5.745
		c0.743-1.423,2.292-2.243,3.897-2.243h0.058l53.627,0.742c2.392,0.033,3.913-2.547,2.726-4.624l-22.079-38.638
		c-0.55-0.963-1.574-1.557-2.683-1.557h-39.019c0,0-35.274-2.915-35.274,35.274c0,10.926,0,17.783,0,17.783
		s-0.875,12.827,6.705,20.406c7.579,7.579,32.067,28.569,32.067,28.569s7.335,8.979,0,8.163c-4.174-0.466-51.634-0.187-70.769-0.058
		c-1.679-11.055-2.542-22.377-2.542-33.91C31.099,131.79,131.79,31.099,256,31.099S480.901,131.79,480.901,256
		c0,11.754-0.898,23.286-2.635,34.551h-31.437c-1.707,0-3.091-1.384-3.091-3.091V181.115c0-1.707-1.384-3.091-3.091-3.091h-29.56
		l-46.643,76.961v-73.87c0-1.707-1.384-3.091-3.091-3.091h-27.168c-1.117,0-2.147,0.603-2.694,1.577l-83.015,147.741
		c-1.158,2.06,0.331,4.604,2.694,4.604h42.04c1.14,0,2.187-0.627,2.725-1.632l28.876-53.965c1.517-2.835,5.816-1.757,5.816,1.458
		v51.049c0,1.707,1.384,3.091,3.091,3.091h33.538c1.14,0,2.187-0.627,2.725-1.632l28.876-53.965
		c1.517-2.835,5.815-1.757,5.815,1.458v51.049c0,1.707,1.384,3.091,3.091,3.091h59.982C436.613,418.784,353.554,480.912,256,480.912
		z"/>
</g>
<g>
	<path style="fill:#8C8C8C;" d="M97.303,179.774h3.609C100.912,179.774,99.524,179.66,97.303,179.774z"/>
	<path style="fill:#8C8C8C;" d="M73.311,289.968c1.132,0.126,1.912,0.017,2.427-0.255c-3.935,0.007-8.018,0.019-12.081,0.034
		C68.737,289.785,72.299,289.855,73.311,289.968z"/>
	<path style="fill:#8C8C8C;" d="M256,0c-5.223,0-10.404,0.175-15.55,0.483c132.231,7.925,237.405,116.202,240.377,249.711
		c0.049,1.93,0.073,3.865,0.073,5.806c0,1.756-0.026,3.505-0.066,5.25c-2.692,133.764-107.97,242.33-240.384,250.266
		C245.596,511.825,250.777,512,256,512c141.387,0,256-114.614,256-256S397.387,0,256,0z"/>
</g>
<g>
</g>
<g>
</g>
<g>
</g>
<g>
</g>
<g>
</g>
<g>
</g>
<g>
</g>
<g>
</g>
<g>
</g>
<g>
</g>
<g>
</g>
<g>
</g>
<g>
</g>
<g>
</g>
<g>
</g>
</svg>
