<?xml version="1.0" encoding="iso-8859-1"?>
<!-- Generator: Adobe Illustrator 19.0.0, SVG Export Plug-In . SVG Version: 6.00 Build 0)  -->
<svg version="1.1" id="Capa_1" xmlns="http://www.w3.org/2000/svg" xmlns:xlink="http://www.w3.org/1999/xlink" x="0px" y="0px"
	 viewBox="0 0 512.002 512.002" style="enable-background:new 0 0 512.002 512.002;" xml:space="preserve">
<g>
	<g>
		<path style="fill:#00539E;" d="M190.093,331.657l5.695,0.019c2.178,0.007,3.974,1.703,4.1,3.871l7.46,128.653
			c0.126,2.173,1.93,3.871,4.114,3.871l59.013-0.002c1.399,0,2.698-0.702,3.458-1.873c10.433-16.089,82.962-129.929,100.923-158.124
			c1.742-2.735-0.232-6.306-3.481-6.306l-67.672-0.002c-1.757,0-3.321,1.111-3.895,2.767l-7.517,21.703
			c-0.921,2.659,1.051,5.434,3.873,5.449l3.899,0.021c3.174,0.017,5.142,3.45,3.536,6.18c-8.004,13.609-27.35,46.166-38.177,64.372
			c-2.137,3.594-7.662,2.078-7.662-2.1v-63.089c0-2.268,1.844-4.107,4.119-4.108l7.2-0.003c1.839-0.001,3.455-1.217,3.96-2.98
			l6.58-22.974c0.752-2.624-1.225-5.236-3.962-5.236l-79.395-0.007c-1.844,0-3.464,1.221-3.965,2.99l-6.151,21.681
			C185.4,329.047,187.366,331.648,190.093,331.657z"/>
		<path style="fill:#00539E;" d="M421.332,471.164c19.307-2.268,55.53-16.651,64.584-41.344
			c17.816-41.208-33.363-61.34-40.379-65.488c-9.439-5.582-16.898-15.027-7.832-23.099c3.284-2.924,10.7-9.321,29.978-2.5
			l0.073,12.372l31.283,0.04l12.957-45.408c-17.615-3.784-22.353-5.325-41.094-6.285c-14.742-0.755-29.378-0.036-43.177,3.184
			c-24.205,5.649-47.824,19.387-53.263,41.045c-3.22,12.821-0.528,37.913,34.958,57.012c5.488,2.799,10.897,5.79,14.459,9.35
			c6.987,6.981,9.296,22.703-12.557,24.673c-4.511,0.407-18.952,0.478-22.487-0.895l-0.013-16.407l-33.294-0.002l-13.079,47
			C356.592,468.892,393.678,475.311,421.332,471.164z"/>
		<path style="fill:#00539E;" d="M178.306,306.814l-9.89,43.715c-0.422,1.873-2.102,3.212-4.038,3.201l-27.176-0.134
			c-2.647-0.011-4.595-2.481-3.987-5.054l1.391-5.877c0.608-2.563-1.329-5.023-3.976-5.054l-8.375-0.062l-2.184-0.021
			c-0.155,0-0.299,0-0.443,0.021c-1.7,0.164-3.121,1.358-3.575,3.026c-3.801,14.153-18.461,72.493-23.251,91.896
			c-0.639,2.594,1.329,5.085,4.007,5.085h13.238c2.73,0,4.698,2.584,3.976,5.208l-6.212,22.336
			c-0.495,1.781-2.122,3.016-3.976,3.016l-28.587-0.011l-62.872-0.011c-2.781,0-4.759-2.686-3.935-5.331l6.954-22.325
			c0.536-1.719,2.122-2.882,3.925-2.892l12.723-0.041c1.916-0.01,3.575-1.328,3.997-3.18l21.428-92.442
			c0.597-2.573-1.36-5.033-4.007-5.033l-9.663-0.01c-1.762,0-3.327,1.111-3.904,2.769l-3.925,11.353
			c-0.567,1.668-2.143,2.779-3.904,2.779l-32.059-0.072v-0.422c0.783-1.338,9.333-36.057,12.424-48.377
			c0.464-1.822,2.101-3.098,3.997-3.098l157.864,0.031C176.936,301.802,178.893,304.241,178.306,306.814z"/>
	</g>
	<g>
		<path style="fill:#E82934;" d="M508.601,235.304l-27.31-2.438c-1.61-0.14-2.84-1.489-2.86-3.108l-0.04-5.755
			c-0.01-1.239-0.74-2.358-1.87-2.848c0,0-0.01,0-0.03-0.01c-0.12-0.06-0.54-0.24-1.23-0.55c-0.13-0.06-0.28-0.12-0.43-0.19
			c-0.08-0.03-0.17-0.07-0.26-0.11c-11.53-5.056-71.02-30.646-91.38-29.397c-6.51,0.549-12.8,1.658-18.59,3.627
			c-1.76,0.6-7.44,3.567-11.15,5.536c-2.06,1.099-4.46,1.359-6.7,0.719c-6.46-1.858-21.51-5.136-38.6-1.599
			c-46.92,1.299-80.7-14.778-81.67-14.748c-0.98,0.03-48.96,17.097-82.909,12.231c-7.56-0.57-5.8-1.23-10.57,2.678
			c-11.39,9.363-34.6,24.831-49.26,30.646c-29.77,11.811-60.7,14.908-82.29,2.109c-2.19-1.299-1.83-4.587,0.59-5.386l24.98-8.393
			c0.32-0.11,0.63-0.15,0.94-0.15c1.58,0,2.97,1.27,2.97,2.978c0,1.698,1.41,3.057,3.1,2.978c7.63-0.36,28.29-3.038,50.14-20.445
			c1.79-1.658,23.63-19.225,28.08-24.881c1.8-2.288,3.78-1.219,9.8-3.547c13.2-5.116,19.84-15.588,27.64-26.5
			c8.42-11.781,12.77-22.992,23.57-30.257c7.39-4.966,17.13-8.144,28.25-6.964c10.82,1.139,42.97,16.427,53.64,18.356
			c22.91,4.156,40.48-2.608,56.65-12.351c23.21-13.989,40.04-35.263,65.68-42.207c16.57-4.497,22.27-0.779,30.77-0.999
			c0.84-0.02,1.63-0.37,2.2-0.979l10.6-11.421c0.32-0.34,0.89-0.14,0.92,0.33c0.21,4.067,0.92,16.807,1.51,20.644
			c0.1,0.619,0.37,1.179,0.8,1.639c4.13,4.357,30.19,31.815,35.15,36.451c0.44,0.41,0.62,1.029,0.47,1.609
			c-0.51,1.869-2.07,5.855-6.47,7.884c-0.16,0.08-0.35,0.12-0.54,0.12h-22.3c-0.7,0-1.26-0.569-1.27-1.269v-3.007
			c0-0.56-0.37-1.049-0.91-1.209l-26.95-8.014c-3.68,0.759-7.22,2.818-9.66,5.656c-1.14,1.319-2.04,2.807-2.61,4.417
			c-0.04,0.12-0.09,0.25-0.12,0.369c-0.08,0.25-0.15,0.49-0.21,0.74c-0.04,0.16-0.08,0.32-0.11,0.48c-0.06,0.24-0.1,0.49-0.13,0.74
			c-0.02,0.14-0.04,0.28-0.05,0.429c-0.02,0.17-0.04,0.34-0.04,0.51c-0.01,0.21-0.02,0.42-0.02,0.629
			c-0.01,2.318,0.69,4.766,2.31,7.244c3.93,6.015,12.96,12.071,19.96,16.557c18.34,11.761,37.75,23.282,55.06,36.462
			c0,0,38.52,25.041,45.81,39.41C512.77,232.945,511.06,235.523,508.601,235.304z"/>
		<path style="fill:#E82934;" d="M286.379,85.544c2.621-0.064,8.655-0.469,11.216-0.647c0.498-0.035,0.81,0.533,0.505,0.929
			c-2.87,3.732-13.485,14.696-18.576,18.019c-6.369,4.157-26.102,9.077-33.741,8.872c-0.479-0.013-0.749,0.549-0.454,0.928l0,0
			c0.648,0.835,1.58,1.396,2.623,1.572c3.849,0.648,11.376,2.378,22.915,0.863c8.017-1.053,14.241-3.315,20.158-6.856
			c11.396-6.819,59.808-47.544,88.404-45.693c0.365,0.044,0.726,0.087,1.09,0.131l20.315,3.375c1.404,0.233,2.837-0.201,3.876-1.174
			l5.476-5.13c1.469-1.376,1.362-3.722-0.208-4.982c-4.24-3.405-11.478-7.509-15.006-9.17c0,0,0,0-0.001,0
			c-48.741-19.746-79.656,7.692-83.523,11.398c-0.233,0.223-0.24,0.588-0.02,0.824l4.478,4.789c0.295,0.316,0.16,0.821-0.25,0.958
			c-10.393,3.453-24.989,14.877-29.714,20.021C285.595,84.949,285.865,85.557,286.379,85.544z"/>
		<path style="fill:#E82934;" d="M177.303,112.84c0.318-0.305,0.901-0.853,1.578-1.44c0.948-0.823,0.517-2.393-0.722-2.598
			c-17.541-2.905-30.023,1.749-38.997,5.485c-14.598,6.076-22.448,5.338-36.502-2.865c-9.163-5.347-19.683-12.555-31.127-15.794
			c-9.134-2.585-20.804-2.341-28.8,2.776l-3.176,2.25c-1.152,0.816-0.628,2.629,0.782,2.701c13.822,0.705,25.383,5.179,30.703,7.589
			c1.212,0.549,1.155,2.285-0.091,2.754l-11.981,4.518c-1.409,0.531-1.232,2.558,0.244,2.857
			c18.847,3.82,43.741,22.61,59.413,17.365c9.661-3.233,18.709-9.029,27.495-13.408c0.068-0.034,0.128-0.071,0.189-0.116
			c6.357-4.723,27.407-10.87,30.381-11.724C176.927,113.123,177.129,113.007,177.303,112.84z"/>
	</g>
	<g>
		<path style="fill:#004380;" d="M374.853,308.07c-17.956,28.193-90.491,142.033-100.916,158.121
			c-0.762,1.173-2.06,1.873-3.461,1.873h-25.167c-0.113-1.071-0.134-1.739-0.051-1.873c10.436-16.088,82.96-129.929,100.926-158.121
			c1.741-2.738-0.237-6.299-3.482-6.299h28.67C374.626,301.771,376.594,305.332,374.853,308.07z"/>
		<path style="fill:#004380;" d="M445.537,364.332c-9.439-5.582-16.898-15.027-7.832-23.099c1.7-1.513,4.512-3.953,9.498-5.013
			c-13.3-0.397-19.368,4.208-22.802,7.413c-1.441,1.345-2.39,3.152-2.569,5.114c-0.728,7.986,3.85,13.474,12.219,18.422
			c7.016,4.148,41.009,21.443,23.193,62.651c-9.054,24.693-45.277,39.076-64.584,41.344c-2.059,0.309-4.176,0.552-6.326,0.749
			c11.814,0.874,24.133,0.881,34.999-0.749c19.307-2.268,55.53-16.651,64.584-41.344
			C503.732,388.613,452.553,368.48,445.537,364.332z"/>
		<path style="fill:#004380;" d="M492.288,301.608l-18.062,49.505l24.812,0.031l12.957-45.407
			C503.402,303.891,497.873,302.58,492.288,301.608z"/>
		<path style="fill:#004380;" d="M174.29,301.803l-157.866-0.035c-0.025,0-0.05,0.006-0.075,0.006l129.268,0.029
			c2.641,0.001,4.6,2.443,4.019,5.012l-9.888,43.712c-0.341,1.508-1.495,2.651-2.934,3.044c0.128,0.013,0.257,0.024,0.389,0.025
			l27.178,0.135c1.934,0.01,3.615-1.323,4.04-3.204l9.889-43.712C178.89,304.246,176.931,301.803,174.29,301.803z"/>
		<path style="fill:#004380;" d="M119.627,337.55c-1.7,0.164-3.121,1.358-3.575,3.026c-3.801,14.153-18.461,72.493-23.251,91.896
			c-0.639,2.594,1.329,5.085,4.007,5.085h13.238c2.73,0,4.698,2.584,3.976,5.208l-6.212,22.336
			c-0.495,1.781-2.122,3.016-3.976,3.016l-28.587-0.011c1.813-0.031,3.4-1.245,3.894-3.005l6.202-22.336
			c0.731-2.625-1.247-5.208-3.966-5.208H68.139c-2.678,0-4.646-2.491-4.007-5.085c4.79-19.402,19.45-77.743,23.251-91.896
			c0.484-1.812,2.132-3.067,4.007-3.047L119.627,337.55z"/>
	</g>
	<g>
		<path style="fill:#C7232C;" d="M394.809,82.898c0.095,0.62,0.372,1.187,0.803,1.641c4.129,4.355,30.187,31.815,35.146,36.45
			c0.441,0.412,0.622,1.028,0.465,1.611c-0.263,0.973-0.817,2.52-1.903,4.066l0.006,2.67c0.001,0.7,0.568,1.266,1.267,1.266h22.299
			c0.186,0,0.375-0.039,0.544-0.117c4.397-2.032,5.956-6.017,6.46-7.886c0.158-0.584-0.024-1.199-0.465-1.611
			c-4.959-4.634-31.017-32.095-35.146-36.45c-0.431-0.454-0.708-1.021-0.803-1.641c-0.59-3.834-1.297-16.576-1.512-20.637
			c-0.025-0.47-0.602-0.677-0.922-0.332L410.446,73.35c-0.566,0.61-1.36,0.955-2.191,0.977c-4.84,0.126-8.772-1.022-14.312-1.209
			C394.214,77.135,394.525,81.051,394.809,82.898z"/>
		<path style="fill:#C7232C;" d="M508.601,235.304l-27.31-2.438c-1.61-0.14-2.84-1.489-2.86-3.108l-0.04-5.755
			c-0.01-1.239-0.74-2.358-1.87-2.848c0,0-0.01,0-0.03-0.01c-0.12-0.06-0.54-0.24-1.23-0.55c-0.13-0.06-0.27-0.12-0.43-0.19
			c-0.08-0.03-0.17-0.07-0.26-0.11c-13.74-13.58-37.4-28.958-37.4-28.958c-17.31-13.18-36.72-24.701-55.07-36.462
			c-6.99-4.486-16.02-10.542-19.96-16.557c-6.43-9.852,3.03-10.492,11.99-12.35l17.67-3.207c-1.14,1.319-2.04,2.807-2.61,4.417
			c-0.04,0.13-0.09,0.25-0.12,0.369c-0.08,0.25-0.15,0.49-0.21,0.74c-0.04,0.16-0.08,0.32-0.11,0.48c-0.06,0.24-0.1,0.49-0.13,0.74
			c-0.02,0.14-0.04,0.28-0.05,0.429c-0.02,0.17-0.04,0.34-0.04,0.51c-0.01,0.21-0.02,0.42-0.02,0.629
			c-0.01,2.318,0.69,4.766,2.31,7.244c3.93,6.015,12.96,12.071,19.96,16.557c18.34,11.761,37.75,23.282,55.06,36.462
			c0,0,38.52,25.041,45.81,39.41C512.77,232.945,511.06,235.523,508.601,235.304z"/>
	</g>
</g>
<g>
</g>
<g>
</g>
<g>
</g>
<g>
</g>
<g>
</g>
<g>
</g>
<g>
</g>
<g>
</g>
<g>
</g>
<g>
</g>
<g>
</g>
<g>
</g>
<g>
</g>
<g>
</g>
<g>
</g>
</svg>
