<?xml version="1.0" encoding="iso-8859-1"?>
<!-- Generator: Adobe Illustrator 19.0.0, SVG Export Plug-In . SVG Version: 6.00 Build 0)  -->
<svg version="1.1" id="Capa_1" xmlns="http://www.w3.org/2000/svg" xmlns:xlink="http://www.w3.org/1999/xlink" x="0px" y="0px"
	 viewBox="0 0 512 512" style="enable-background:new 0 0 512 512;" xml:space="preserve">
<g>
	<path style="fill:#E82934;" d="M508,405H4c-2.209,0-4-1.791-4-4V111c0-2.209,1.791-4,4-4h504c2.209,0,4,1.791,4,4v290
		C512,403.209,510.209,405,508,405z"/>
	<path style="fill:#C7232C;" d="M486.245,107v298H508c2.209,0,4-1.791,4-4V111c0-2.209-1.791-4-4-4H486.245z"/>
	<g>
		<path style="fill:#FFFFFF;" d="M116.597,283.043l59.083-78.604c0.376-0.5,0.964-0.795,1.589-0.798L314.614,203
			c0.214-0.001,0.426,0.032,0.63,0.099l55.983,18.267c1.805,0.589,1.851,3.125,0.068,3.779l-31.552,11.572
			c-1.8,0.66-1.73,3.229,0.103,3.79l52.95,16.208c1.826,0.559,1.905,3.114,0.117,3.785l-78.61,29.486
			c-0.16,0.06-0.326,0.099-0.496,0.117L136.633,308.51c-1.764,0.183-2.876-1.85-1.77-3.236l0.059-0.074
			c0.245-0.307,0.574-0.535,0.947-0.656l167.998-54.408c1.9-0.615,1.824-3.33-0.108-3.837l-36.369-9.553
			c-1.842-0.484-2.029-3.026-0.277-3.774l9.575-4.088c1.853-0.791,1.505-3.517-0.487-3.817l-25.117-3.785
			c-0.635-0.096-1.278,0.12-1.727,0.579l-37.401,38.205c-0.226,0.231-0.504,0.403-0.811,0.503l-63.918,20.776
			c-0.093,0.03-0.188,0.054-0.285,0.07l-28.412,4.804C116.747,286.518,115.511,284.488,116.597,283.043z"/>
		<path style="fill:#FFFFFF;" d="M493.116,214.257c-10.607-50.25-119.129-78.664-254.536-63.144
			C106.616,166.239,6.084,240.72,19.096,294.919c14.286,59.503,123.29,83.376,254.536,63.143
			C422.37,335.134,503.723,264.507,493.116,214.257z M277.832,333.696c-113.396,21.817-217.084-4.966-224.179-46.854
			s76.156-98.407,190.757-112.535c117.593-14.497,213.436,5.601,221.489,42.385C473.953,253.477,417.802,306.767,277.832,333.696z"
			/>
	</g>
</g>
<g>
</g>
<g>
</g>
<g>
</g>
<g>
</g>
<g>
</g>
<g>
</g>
<g>
</g>
<g>
</g>
<g>
</g>
<g>
</g>
<g>
</g>
<g>
</g>
<g>
</g>
<g>
</g>
<g>
</g>
</svg>
