<?xml version="1.0" encoding="iso-8859-1"?>
<!-- Generator: Adobe Illustrator 19.0.0, SVG Export Plug-In . SVG Version: 6.00 Build 0)  -->
<svg version="1.1" id="Capa_1" xmlns="http://www.w3.org/2000/svg" xmlns:xlink="http://www.w3.org/1999/xlink" x="0px" y="0px"
	 viewBox="0 0 512.001 512.001" style="enable-background:new 0 0 512.001 512.001;" xml:space="preserve">
<g>
	<g>
		<path style="fill:#CCCCCC;" d="M322.302,202.895c-2.926-0.511-5.935-0.605-8.933-0.365
			C316.099,202.342,319.139,202.416,322.302,202.895z M312.571,280.634c2.018,0.274,4.37,0.33,6.929,0.104
			C316.821,280.925,314.448,280.866,312.571,280.634z M312.571,280.634c-0.403-0.054-0.814-0.105-1.187-0.178
			C311.75,280.525,312.153,280.582,312.571,280.634z"/>
		<path style="fill:#CCCCCC;" d="M507.316,255.049c-5.112,0.868-14.206,2.411-26.432,4.485c0,0-0.249-6.749-0.345-14.803
			c-0.032-2.715-2.694-4.626-5.272-3.772c-28.458,9.425-23.007-32.231-20.391-46.415c0.445-2.413-1.373-4.646-3.826-4.709
			c-3.023-0.078-7.068-0.18-10.871-0.272c-3.194-0.079-6.218-0.152-8.319-0.199c-1.73-0.039-3.286,1.035-3.868,2.664l-0.365,1.022
			c-0.809,2.268-3.411,3.319-5.566,2.243c-4.889-2.44-13.046-5.382-21.801-3.551c-22.082,4.624-27.117,18.498-28.493,21.741
			c-0.17,0.4-0.463,0.727-0.839,0.945l-20.347,11.779c-6.39-15.377-17.494-21.423-27.523-23.174
			c-0.248-0.052-0.507-0.094-0.755-0.135c-3.164-0.48-6.203-0.553-8.933-0.365c-0.403,0.031-0.796,0.063-1.189,0.104
			c-0.476,0.042-0.951,0.104-1.416,0.167c-3.174,0.438-6.317,1.199-9.326,2.189c-0.021,0-0.031,0-0.031,0
			c-8.812,2.869-16.467,7.579-20.49,11.219c-0.853,0.772-1.34,1.857-1.328,3.007c0.025,2.377,0.07,6.909,0.1,11.229
			c0.004,0.632-0.285,1.225-0.789,1.605c-2.932,2.208-13.019,9.017-17.567,12.086c-0.693-3.983-1.778-7.443-3.112-10.467
			c0-0.011-0.01-0.021-0.01-0.032c-6.232-14.105-17.853-18.429-20.778-19.315c-0.318-0.096-0.655-0.004-0.88,0.24
			c-4.098,4.433-41.824,45.325-41.824,45.325l-8.478,9.226c-0.848,0.896-2.006,1.387-3.205,1.387c-0.414,0-0.848-0.063-1.261-0.188
			c-2.492-0.761-3.815-3.492-2.864-5.942c0.62-1.616,1.768-3.21,3.184-4.795c1.737-1.939,3.867-3.857,5.966-5.755
			c1.427-1.293,1.727-3.472,0.631-5.067c-5.821-8.444-15.509-16.117-26.613-18.233c-0.031-0.011-0.062-0.021-0.083-0.021
			c-3.195-0.615-6.524-0.751-9.895-0.313c-0.682,0.073-1.375,0.188-2.068,0.323c-0.01,0.011-0.021,0.011-0.031,0.011
			c-24.194,4.816-29.125,30.899-29.777,33.651L79.312,294.28c0.3-2.158,0.734-4.253,1.241-6.307
			c0.744-3.086,1.654-6.078,2.512-9.038c5.335-18.567,25.393-30.931,33.271-32.38c2.264-0.407,6.813-0.824,9.481-2.513
			c2.233-1.407,3.867-4.514,2.988-7.214l-3.071-6.307l-11.982-24.56c-0.706-1.447-2.418-2.084-3.897-1.446
			c-8.098,3.49-32.624,16.263-46.373,47.565c-0.196,0.428-0.383,0.876-0.569,1.314c-3.495,8.277-5.325,17.629-6.689,27.428
			c-29.513-51.531,1.389-91.406,9.067-100.074c0.937-1.057,1.007-2.619,0.176-3.761l-0.62-0.852
			c-2.099-2.878-4.539-7.214-6.969-12.009c-4.727-9.279-9.465-20.278-11.778-25.784c-0.763-1.817-3.037-2.42-4.597-1.215
			c-9.879,7.635-39.608,33.953-38.547,73.494c1.282,47.985,26.292,74.173,47.87,107.866l4.715,13.459
			c-21.36,3.664-36.301,6.253-41.95,7.271c-1.45,0.261-2.641,1.294-3.096,2.695c-2.128,6.545-7.336,20.101-10.253,28.221
			c-1.051,2.926,1.479,5.88,4.533,5.292c41.433-7.973,265.328-51.009,275.984-52.049l0.833,9.398
			c0.209,2.358,2.399,4.025,4.726,3.594c6.504-1.207,17.607-3.347,23.787-4.525c1.99-0.379,3.381-2.181,3.25-4.203l-0.669-10.289
			l195.917-36.969c1.886-0.356,3.256-1.996,3.27-3.915l0.128-17.431C512.019,256.539,509.778,254.631,507.316,255.049z
			 M87.366,326.67l36.088-29.924c0.954-0.791,2.391-0.544,3.011,0.529c4.14,7.174,11.917,17.282,21.024,19.147
			C127.513,319.831,103.992,323.845,87.366,326.67z M159.471,261.619l-8.912,8.215c-1.799,1.387-4.012,1.043-4.921-0.74
			c-3.071-6.046-1.541-12.677,5.738-14.845C158.655,252.079,160.05,260.774,159.471,261.619z M207.062,306.258
			c-8.364,1.428-17.163,2.929-17.701,3.013c-0.021,0.01-0.031,0.01-0.031,0.01s8.716-13.406,8.892-14.584
			c0.01-0.063,0.021-0.125,0.021-0.188l25.848-30.691C225.9,280.321,216.254,295.384,207.062,306.258z M252.296,298.47l6.297-18.91
			c0.01-0.021,0.01-0.042,0.01-0.063c0.31-1.157,0.589-2.294,0.848-3.399l16.492-11.72c1.313-0.933,3.136-0.017,3.17,1.594
			l0.583,27.901L252.296,298.47z M306.608,239.685c-1.179-3.701-0.837-8.778,2.254-11.541c3.091-2.377,7.816-2.012,10.773,0.188
			c1.82,1.501,3.681,3.701,4.301,6.078c1.096,2.804,0.651,7.006-1.127,9.466c-2.026,2.616-4.88,3.701-7.878,3.274
			C311.208,246.523,308.065,243.562,306.608,239.685z M311.384,288.473l-0.62-8.152c0.01,0,0.01,0.01,0.021,0.01
			c0.186,0.042,0.383,0.083,0.6,0.125c2.006,0.375,4.839,0.511,8.116,0.281c12.831-0.907,32.361-7.444,35.37-27.094
			c3.954-2.731,8.997-6.014,12.113-8.021c1.261-0.812,2.934,0.003,3.074,1.496c2.34,24.973,25.208,26.947,25.208,26.947
			C369.18,278.507,340.954,283.448,311.384,288.473z M411.663,239.07c-2.233,2.794-5.449,3.461-8.54,2.658
			c-3.071-0.98-6.359-3.961-7.217-7.631c-1.127-3.054-0.806-7.464,1.292-9.862c2.543-2.96,6.638-3.43,9.884-1.855
			c2.151,1.126,4.373,3.44,5.438,6.005C413.897,231.595,413.752,236.286,411.663,239.07z M430.967,268.009
			c0,0,4.642-5.264,5.862-17.013c5.5,11.936,14.63,13.531,14.63,13.531C445.018,265.622,438.173,266.789,430.967,268.009z"/>
	</g>
	<path style="fill:#B5B5B5;" d="M508.603,280.38l-195.917,36.97l0.669,10.288c0.132,2.024-1.268,3.829-3.262,4.205l-23.762,4.483
		c-2.331,0.44-4.534-1.227-4.743-3.59l-0.829-9.36L5.042,375.399c-3.036,0.573-5.555-2.355-4.533-5.271l9.886-28.226
		c0.483-1.378,1.675-2.385,3.114-2.63l493.802-84.218c2.463-0.42,4.708,1.488,4.689,3.986l-0.127,17.425
		C511.858,278.384,510.488,280.025,508.603,280.38z"/>
	<path style="fill:#A6A6A6;" d="M258.591,279.56c-1.53,5.786-3.598,12.082-6.296,18.91L258.591,279.56z"/>
	<g>
		<path style="fill:#B5B5B5;" d="M237.794,214.436c0,0,42.529,9.9,15.875,84.483l-23.319,4.054
			C230.35,302.973,265.978,258.632,237.794,214.436z"/>
		<path style="fill:#B5B5B5;" d="M125.816,244.042c-2.668,1.689-7.217,2.106-9.481,2.513c-7.878,1.449-27.936,13.813-33.271,32.38
			c-0.858,2.961-1.768,5.953-2.512,9.038c-0.755,2.127-1.199,4.233-1.241,6.307c-0.372,18.014,7.92,32.223,7.92,32.223l-7.827,1.533
			l-5.511-14.47c-6.131-17.264-7.992-42.419,13.027-61.632c13.41-12.249,38.813-21.413,38.813-21.413l3.071,6.307
			C129.683,239.528,128.049,242.635,125.816,244.042z"/>
	</g>
	<path style="fill:#CCCCCC;" d="M63.481,252.079c-3.991,17.785-7.258,28.742-7.258,28.742c1.365-9.799,3.195-19.151,6.689-27.428
		C63.099,252.955,63.285,252.507,63.481,252.079z"/>
	<g>
		<path style="fill:#B5B5B5;" d="M56.223,280.821c-40.674-53.615-13.472-98.484,1.654-116.696c2.43,4.796,4.87,9.132,6.969,12.009
			l0.62,0.852c0.831,1.142,0.761,2.703-0.176,3.761C57.612,189.415,26.71,229.29,56.223,280.821z"/>
		<path style="fill:#B5B5B5;" d="M188.068,253.821c-2.099,1.897-4.229,3.815-5.966,5.755c-3.329-7.037-12.562-22.956-29.994-29.388
			c3.371-0.438,6.7-0.302,9.895,0.313c0.021,0,0.052,0.01,0.083,0.021c11.104,2.116,20.792,9.789,26.613,18.233
			C189.795,250.349,189.495,252.528,188.068,253.821z"/>
		<path style="fill:#B5B5B5;" d="M198.242,294.509c0,0.063-0.01,0.125-0.021,0.188c-0.176,1.178-8.892,14.584-8.892,14.584
			l-18.59,3.18C192.514,305.559,198.242,294.509,198.242,294.509z"/>
		<path style="fill:#B5B5B5;" d="M310.783,280.331c-0.01,0-0.01-0.01-0.021-0.01c9.564-1.282,30.583-12.949,27.402-38.276
			c-4.997-39.788-35.498-37.054-36.728-37.054c3.009-0.99,6.152-1.751,9.326-2.189c13.658-1.866,38.258,2.356,43.945,38.603
			S321.339,282.781,310.783,280.331z"/>
		<path style="fill:#B5B5B5;" d="M480.883,259.534l-15.364,2.648c-46.371-12.614-25.341-72.62-25.341-72.62
			c3.795,0.091,7.831,0.194,10.852,0.272c2.463,0.063,4.288,2.305,3.842,4.728c-2.618,14.203-8.052,55.825,20.401,46.394
			c2.574-0.853,5.232,1.056,5.265,3.767C480.633,252.781,480.883,259.534,480.883,259.534z"/>
	</g>
</g>
<g>
</g>
<g>
</g>
<g>
</g>
<g>
</g>
<g>
</g>
<g>
</g>
<g>
</g>
<g>
</g>
<g>
</g>
<g>
</g>
<g>
</g>
<g>
</g>
<g>
</g>
<g>
</g>
<g>
</g>
</svg>
