<?xml version="1.0" encoding="iso-8859-1"?>
<!-- Generator: Adobe Illustrator 19.0.0, SVG Export Plug-In . SVG Version: 6.00 Build 0)  -->
<svg version="1.1" id="Capa_1" xmlns="http://www.w3.org/2000/svg" xmlns:xlink="http://www.w3.org/1999/xlink" x="0px" y="0px"
	 viewBox="0 0 512.001 512.001" style="enable-background:new 0 0 512.001 512.001;" xml:space="preserve">
<path style="fill:#CCCCCC;" d="M501.56,114.504c3.515-0.125,5.56,3.935,3.371,6.692l-13.813,17.399
	c-0.649,0.804-65.087,81.856-127.248,151.561c-28.98,32.503-90.941,93.105-104.393,106.21c-1.488,1.449-3.825,1.519-5.395,0.16
	c-10.853-9.39-52.391-46.316-105.952-106.37C85.969,220.451,21.531,139.399,20.882,138.595l-13.814-17.4
	c-2.189-2.757-0.144-6.816,3.371-6.692l22.186,0.787c0.577,0.021,14.588,0.536,44.525,2.538c5.995,0.402,11.394,0.826,16.205,1.238
	c19.584,1.702,29.35,3.363,29.855,3.445l3.645,0.633c0.946,0.164,1.806,0.655,2.43,1.386l2.404,2.819l107.86,126.783l0.556,0.66
	L256,273.475L380.312,127.35l2.404-2.819c0.624-0.731,1.483-1.222,2.429-1.386l3.645-0.633c0.629-0.103,15.618-2.651,46.059-4.683
	c29.937-2.001,43.948-2.517,44.525-2.538L501.56,114.504z"/>
<g>
	<path style="fill:#8C8C8C;" d="M240.104,254.793l-15.886,18.682L93.355,119.066c19.584,1.702,29.35,3.363,29.855,3.445l3.645,0.633
		c0.946,0.164,1.806,0.655,2.429,1.386l2.404,2.819l107.86,126.783L240.104,254.793z"/>
	<path style="fill:#8C8C8C;" d="M479.377,115.296c-0.103,0.004-0.638,0.023-1.6,0.063l-18.448,23.23
		c-0.642,0.809-65.08,81.86-127.243,151.568c-23.431,26.272-68.407,70.907-91.889,93.972c6.403,5.858,11.134,10.015,13.888,12.398
		c1.57,1.358,3.906,1.286,5.393-0.162c13.452-13.106,75.408-73.708,104.394-106.207c62.162-69.708,126.601-150.759,127.243-151.568
		l13.811-17.392c2.19-2.757,0.144-6.818-3.372-6.692L479.377,115.296z"/>
</g>
<path style="fill:#A51F23;" d="M256.002,368.538c-12.808-11.665-43.66-43.534-89.425-94.851
	c-44.083-49.431-89.358-104.66-111.839-132.446c5.792,0.34,12.703,0.77,20.761,1.307c20.698,1.382,33.945,3.014,39.884,3.843
	l140.618,165.293l140.616-165.293c5.935-0.829,19.184-2.462,39.884-3.843c8.058-0.537,14.969-0.967,20.761-1.307
	C434.78,169.027,316.781,314.831,256.002,368.538z"/>
<path style="fill:#E3E3E3;" d="M256,254.394c-55.997,0-192.84,14.447-214.745,16.799c-1.781,0.191-3.48-0.783-4.221-2.416
	L0.375,187.899c-1.169-2.578,0.52-5.545,3.332-5.851c30.602-3.331,176.829-18.807,252.25-18.807
	c75.424,0,221.725,15.477,252.337,18.807c2.811,0.306,4.5,3.273,3.332,5.851l-36.659,80.878c-0.74,1.633-2.44,2.607-4.221,2.416
	C448.839,268.841,311.998,254.394,256,254.394z"/>
<path style="fill:#CCCCCC;" d="M508.293,182.047c-5.615-0.61-15.134-1.632-27.383-2.889l-35.417,89.227
	c-0.023,0.057-0.054,0.107-0.078,0.163c11.985,1.223,20.955,2.176,25.33,2.646c1.781,0.191,3.481-0.783,4.221-2.416l36.659-80.878
	C512.794,185.321,511.105,182.354,508.293,182.047z"/>
<g>
	<path style="fill:#202738;" d="M171.705,243.81c-13.068,0.001-27.159-7.63-29.185-22.764c-0.016-0.114-0.028-0.229-0.038-0.344
		l-0.916-10.499c-0.01-0.114-0.018-0.229-0.022-0.345c-0.657-16.055,13.922-26.531,28.397-27.386
		c4.582-0.3,6.897-0.441,11.529-0.704c4.409-0.257,8.687,1.181,11.745,3.92c2.63,2.356,4.179,5.511,4.359,8.882
		c0.222,4.136-2.951,7.669-7.088,7.891c-3.656,0.164-6.845-2.263-7.686-5.696c-0.136-0.021-0.297-0.03-0.484-0.02
		c-4.578,0.259-6.866,0.398-11.444,0.699c-6.129,0.361-14.538,4.212-14.347,11.652l0.882,10.106
		c1.087,7.292,9.773,9.989,15.623,9.559c4.491-0.306,6.722-0.446,11.184-0.71c0.051-0.003,0.099-0.008,0.145-0.014
		c0.071-3.891,3.138-7.124,7.086-7.342c4.114-0.217,7.673,2.938,7.901,7.075l0.045,0.819c0.397,7.469-6.015,13.948-14.295,14.436
		c-4.406,0.26-6.609,0.398-11.017,0.698C173.295,243.781,172.501,243.81,171.705,243.81z"/>
	<path style="fill:#202738;" d="M207.683,195.559c-4.02,0-7.348-3.186-7.49-7.235c-0.146-4.14,3.091-7.613,7.23-7.76
		c17.203-0.608,32.974-0.902,48.231-0.856c4.142,0.009,7.493,3.373,7.484,7.516c-0.009,4.137-3.365,7.484-7.5,7.484
		c-0.005,0-0.011,0-0.016,0c-15.065-0.047-30.656,0.246-47.671,0.847C207.862,195.557,207.772,195.559,207.683,195.559z"/>
	<path style="fill:#202738;" d="M304.793,241.787c-0.25,0-0.5-0.005-0.752-0.014l0,0c-9.023-0.341-13.416-0.467-22.382-0.643
		c-10.623-0.207-19.173-8.858-19.059-19.286l0.254-23.092c0.056-4.979,2.089-9.659,5.726-13.178
		c3.826-3.702,8.951-5.687,14.35-5.557c9.476,0.208,14.091,0.351,23.515,0.729c5.35,0.215,10.449,2.56,13.992,6.434
		c3.409,3.729,5.151,8.512,4.907,13.47l-1.136,23.012C323.707,233.804,315.072,241.787,304.793,241.787z M282.476,195.014
		c-1.342,0-2.568,0.474-3.465,1.341c-0.521,0.504-1.144,1.356-1.156,2.563l-0.254,23.092c-0.025,2.227,1.928,4.076,4.352,4.123
		c9.076,0.179,13.522,0.307,22.655,0.65l0,0c2.441,0.109,4.509-1.641,4.618-3.86l1.136-23.012c0.06-1.192-0.509-2.076-0.995-2.608
		c-0.86-0.941-2.145-1.513-3.522-1.567c-9.315-0.374-13.877-0.516-23.242-0.721C282.56,195.014,282.518,195.014,282.476,195.014z"/>
	<path style="fill:#202738;" d="M372.139,224.281c-0.632,0-1.268-0.028-1.909-0.087c0,0,0,0-0.001,0
		c-11.294-1.031-22.755-1.921-34.063-2.644c-1.986-0.127-3.842-1.038-5.155-2.534c-1.314-1.495-1.979-3.452-1.851-5.438l1.18-18.063
		c0.232-3.557,1.859-6.825,4.581-9.202c2.797-2.442,6.56-3.695,10.322-3.427c9.468,0.653,19.1,1.437,28.617,2.327
		c5.514,0.511,10.655,3.208,14.098,7.401c3.3,4.018,4.825,9.026,4.298,14.103C391.212,216.742,382.385,224.281,372.139,224.281z
		 M371.593,209.257c2.903,0.261,5.48-1.57,5.742-4.092c0.142-1.357-0.45-2.398-0.971-3.032c-0.917-1.117-2.337-1.84-3.895-1.984
		c-9.066-0.849-18.228-1.598-27.256-2.229l-0.599,9.163C353.608,207.712,362.651,208.44,371.593,209.257L371.593,209.257z
		 M344.201,197.85L344.201,197.85L344.201,197.85z"/>
	<path style="fill:#202738;" d="M94.827,251.616c-2.459,0-4.788-1.21-6.196-3.276c-9.705-14.24-19.771-28.604-29.919-42.691
		c-2.422-3.361-1.66-8.048,1.701-10.469c3.36-2.422,8.05-1.66,10.469,1.701c7.323,10.165,14.604,20.473,21.737,30.775
		c4.154-11.777,8.443-23.572,12.807-35.217c1.454-3.88,5.777-5.842,9.655-4.392c3.879,1.454,5.845,5.776,4.392,9.655
		c-6.051,16.145-11.956,32.581-17.553,48.853c-0.923,2.684-3.281,4.616-6.094,4.994C95.492,251.595,95.158,251.616,94.827,251.616z"
		/>
	<path style="fill:#202738;" d="M134.634,247.001c-3.803,0-7.062-2.881-7.453-6.745l-4.688-46.25
		c-0.418-4.121,2.584-7.801,6.705-8.219c4.117-0.421,7.802,2.584,8.219,6.705l4.688,46.252c0.418,4.121-2.585,7.8-6.706,8.218
		C135.142,246.988,134.887,247.001,134.634,247.001z"/>
	<path style="fill:#202738;" d="M232.581,241.146c-4.072,0-7.414-3.26-7.495-7.35l-0.924-46.237
		c-0.083-4.141,3.207-7.565,7.349-7.647c4.119-0.108,7.566,3.207,7.647,7.349l0.924,46.235c0.083,4.142-3.207,7.566-7.348,7.648
		C232.683,241.146,232.632,241.146,232.581,241.146z"/>
	<path style="fill:#202738;" d="M381.29,247.088c-1.303,0-2.621-0.339-3.822-1.052c-11.199-6.649-22.633-13.242-34.111-19.668
		l-0.649,9.951c-0.269,4.134-3.854,7.271-7.973,6.996c-4.134-0.271-7.266-3.84-6.996-7.973l1.421-21.765
		c0.167-2.56,1.631-4.855,3.879-6.089c2.25-1.231,4.973-1.229,7.219,0.005c15.076,8.29,30.172,16.918,44.869,25.644
		c3.562,2.115,4.734,6.717,2.62,10.278C386.344,245.776,383.85,247.088,381.29,247.088z"/>
	<path style="fill:#202738;" d="M420.36,228.529c-2.21,0-4.394-0.973-5.871-2.827c-6.793-8.528-13.758-17.117-20.702-25.528
		c-2.637-3.193-2.185-7.921,1.01-10.559c3.193-2.636,7.922-2.186,10.558,1.01c5.476,6.631,10.964,13.373,16.372,20.109
		c6.989-5.089,14.08-10.171,21.153-15.16c3.388-2.389,8.065-1.578,10.452,1.806c2.388,3.386,1.579,8.064-1.806,10.452
		c-8.965,6.322-17.958,12.797-26.73,19.241C423.461,228.055,421.904,228.529,420.36,228.529z"/>
	<path style="fill:#202738;" d="M417.311,251.232c-0.333,0-0.67-0.022-1.01-0.068c-4.105-0.552-6.985-4.327-6.433-8.433
		l3.055-22.703c0.553-4.105,4.331-6.99,8.434-6.432c4.104,0.553,6.984,4.328,6.432,8.434l-3.055,22.701
		C424.228,248.497,421.008,251.232,417.311,251.232z"/>
	<path style="fill:#202738;" d="M367.013,261.733l-11.605,18.801c-0.387,0.626-1.064,0.99-1.778,0.952
		c-8.249-0.429-59.082-2.988-97.63-2.988c-38.549,0-89.382,2.559-97.631,2.988c-0.714,0.037-1.391-0.326-1.778-0.952l-11.607-18.805
		c-0.815-1.32,0.01-3.067,1.512-3.196c12.874-1.106,61.735-6.712,109.504-6.712c47.818,0,96.513,5.614,109.498,6.715
		C367.001,258.664,367.828,260.412,367.013,261.733z"/>
</g>
<g>
</g>
<g>
</g>
<g>
</g>
<g>
</g>
<g>
</g>
<g>
</g>
<g>
</g>
<g>
</g>
<g>
</g>
<g>
</g>
<g>
</g>
<g>
</g>
<g>
</g>
<g>
</g>
<g>
</g>
</svg>
