<?xml version="1.0" encoding="iso-8859-1"?>
<!-- Generator: Adobe Illustrator 19.0.0, SVG Export Plug-In . SVG Version: 6.00 Build 0)  -->
<svg version="1.1" id="Capa_1" xmlns="http://www.w3.org/2000/svg" xmlns:xlink="http://www.w3.org/1999/xlink" x="0px" y="0px"
	 viewBox="0 0 512 512" style="enable-background:new 0 0 512 512;" xml:space="preserve">
<g>
	<path style="fill:#E82934;" d="M208.723,511.143l-94.642-85.908c-0.688-0.625-1.081-1.513-1.081-2.445V83.655
		c0-2.856,3.371-4.36,5.481-2.445l94.642,85.908c0.688,0.625,1.081,1.513,1.081,2.445v339.136
		C214.204,511.554,210.833,513.058,208.723,511.143z"/>
	<g>
		<path style="fill:#202738;" d="M399,89.215v61.946c0,0.971-0.426,1.892-1.165,2.519l-94.639,80.198
			c-2.133,1.808-5.397,0.285-5.397-2.519V3.302c0-2.856,3.371-4.36,5.481-2.445l94.639,85.914C398.607,87.396,399,88.284,399,89.215
			z"/>
		<path style="fill:#202738;" d="M300.67,341.473l92.933-78.752c2.133-1.808,5.397-0.285,5.397,2.519v163.109
			c0,2.856-3.371,4.36-5.481,2.445l-92.933-84.358C299.111,345.097,299.151,342.76,300.67,341.473z"/>
	</g>
	<path style="fill:#C7232C;" d="M213.123,167.118l-24.638-22.365v348.019l20.239,18.371c2.11,1.915,5.481,0.411,5.481-2.445V169.562
		C214.204,168.631,213.811,167.742,213.123,167.118z"/>
	<g>
		<path style="fill:#191E2B;" d="M397.919,86.775L373.28,64.408v110.083l24.554-20.807c0.739-0.626,1.165-1.547,1.165-2.518V89.22
			C399,88.288,398.607,87.4,397.919,86.775z"/>
		<path style="fill:#191E2B;" d="M393.603,262.721l-20.323,17.221v132.48l20.238,18.371c2.11,1.915,5.481,0.411,5.481-2.445V265.239
			C399,262.436,395.736,260.913,393.603,262.721z"/>
	</g>
</g>
<g>
</g>
<g>
</g>
<g>
</g>
<g>
</g>
<g>
</g>
<g>
</g>
<g>
</g>
<g>
</g>
<g>
</g>
<g>
</g>
<g>
</g>
<g>
</g>
<g>
</g>
<g>
</g>
<g>
</g>
</svg>
