<?xml version="1.0" encoding="iso-8859-1"?>
<!-- Generator: Adobe Illustrator 19.0.0, SVG Export Plug-In . SVG Version: 6.00 Build 0)  -->
<svg version="1.1" id="Capa_1" xmlns="http://www.w3.org/2000/svg" xmlns:xlink="http://www.w3.org/1999/xlink" x="0px" y="0px"
	 viewBox="0 0 512.002 512.002" style="enable-background:new 0 0 512.002 512.002;" xml:space="preserve">
<path style="fill:#00539E;" d="M511.703,111.925l-0.391,0.915c-7.933,19.215-19.316,36.828-33.605,51.954
	c-17.853,18.671-40.908,31.567-66.189,37.044c-46.914,4.131-239.064-15.085-251.653-14.242c-3.111,0.185-6.191,0.534-9.22,1.038
	c-30.596,5.046-56.639,25.741-68.219,54.945c-5.202,12.618-7.397,26.275-6.387,39.89c2.668,35.051,28.114,64.059,62.377,71.468
	c0.701,0.155,1.422,0.298,2.133,0.432c43.103,7.378,102.987-28.824,115.298-76.4c1.174-4.357,0-5.529-3.863-6.197
	c-19.481-2.856-73.915-12.403-87.638-11.899c-18.409,0.072-36.108,7.08-49.562,19.606c-3.079,3.727-8.499,12.476-11.613,17.791
	c-0.908,1.549-3.242,1.215-3.675-0.527c-1.82-7.33-2.392-14.921-1.68-22.463c1.185-12.577,5.707-24.61,13.104-34.855
	c11.961-16.605,30.133-27.672,50.407-30.673c16.277-2.179,209.93,16.092,223.879,15.917c19.8,0.514,39.404-4.049,56.948-13.235
	c0.031-0.021,0.062-0.041,0.093-0.062c3.018-1.819,6.552,1.521,4.924,4.645c-0.907,1.727-1.844,3.442-2.833,5.138
	c-11.188,21.559-28.794,39.12-50.397,50.28c-31.997,20.962-110.878,5.867-110.878,5.867c-2.102-0.37-4.11,1.028-4.481,3.124
	c-0.041,0.246-2.462,15.116-6.49,25.001c-10.055,27.19-27.506,51.05-50.407,68.889c-84.083,68.19-209.982,11.581-221.242-95.37
	c-3.297-42.891,11.919-85.155,41.825-116.147c24.343-25.587,55.939-43.128,90.553-50.29c74.616-9.218,255.866,9.31,325.568,3.35
	c11.291-0.955,22.51-2.579,33.605-4.86c5.161-1.387,10.281-2.99,15.319-4.788C510.199,106.181,512.919,109.12,511.703,111.925z"/>
<g>
	<path style="fill:#004380;" d="M138.417,354.937c-9.23,1.644-18.286,1.881-26.713,0.432c-35.335-6.649-61.79-36.13-64.51-71.9
		c-1.01-13.615,1.185-27.272,6.387-39.89c12.723-32.091,42.917-53.917,77.439-55.982c2.091-0.144,9.138,0.267,19.625,1.038
		c-30.596,5.046-56.639,25.741-68.219,54.945c-5.202,12.618-7.397,26.275-6.387,39.89
		C78.708,318.519,104.153,347.528,138.417,354.937z"/>
	<path style="fill:#004380;" d="M507.314,107.214c-5.041,1.798-10.152,3.395-15.323,4.788c-3.309,0.68-6.63,1.294-9.96,1.857
		c-7.907,18.822-19.135,36.08-33.164,50.94c-17.861,18.663-40.914,31.565-66.189,37.041c-1.502,0.132-3.155,0.24-4.945,0.326
		c14.262,0.4,26.019,0.357,33.79-0.326c25.275-5.477,48.328-18.378,66.189-37.041c14.284-15.129,25.671-32.738,33.598-51.959
		l0.395-0.913C512.919,109.119,510.201,106.184,507.314,107.214z"/>
	<path style="fill:#004380;" d="M442.25,212.372c-0.032,0.019-0.064,0.038-0.096,0.058c-8.531,4.47-17.553,7.834-26.847,10.063
		c-11.19,21.401-28.719,38.845-50.212,49.941c-10.141,6.646-24.994,9.664-40.553,10.692c24.138,1.33,52.958,0.081,69.398-10.692
		c21.608-11.155,39.217-28.723,50.398-50.283c0.996-1.695,1.931-3.411,2.832-5.14C448.798,213.891,445.265,210.55,442.25,212.372z"
		/>
</g>
<g>
</g>
<g>
</g>
<g>
</g>
<g>
</g>
<g>
</g>
<g>
</g>
<g>
</g>
<g>
</g>
<g>
</g>
<g>
</g>
<g>
</g>
<g>
</g>
<g>
</g>
<g>
</g>
<g>
</g>
</svg>
