<?xml version="1.0" encoding="iso-8859-1"?>
<!-- Generator: Adobe Illustrator 19.0.0, SVG Export Plug-In . SVG Version: 6.00 Build 0)  -->
<svg version="1.1" id="Capa_1" xmlns="http://www.w3.org/2000/svg" xmlns:xlink="http://www.w3.org/1999/xlink" x="0px" y="0px"
	 viewBox="0 0 512 512" style="enable-background:new 0 0 512 512;" xml:space="preserve">
<g>
	<path style="fill:#E82934;" d="M508,356H4c-2.209,0-4-1.791-4-4V160c0-2.209,1.791-4,4-4h504c2.209,0,4,1.791,4,4v192
		C512,354.209,510.209,356,508,356z"/>
	<path style="fill:#C7232C;" d="M508,356h-21.755V156H508c2.209,0,4,1.791,4,4v192C512,354.209,510.209,356,508,356z"/>
	<path style="fill:#CCCCCC;" d="M65.932,356H4c-2.209,0-4-1.791-4-4V160c0-2.209,1.791-4,4-4h61.932V356z"/>
</g>
<path style="fill:#FFFFFF;" d="M134.192,199.623h-33.84c-1.657,0-3,1.343-3,3v106.754c0,1.657,1.343,3,3,3h34.159
	c11.75,0,45.103-11.602,45.103-55.34S145.309,199.623,134.192,199.623z"/>
<path style="fill:#E82934;" d="M132.925,284.572H122.92v-45.565l-8.183-11.832h18.979c4.131,0,19.694,2.547,19.694,28.315
	S140.863,284.572,132.925,284.572z"/>
<path style="fill:#FFFFFF;" d="M351.601,235.663c0-26.614-21.593-36.04-27.636-36.04h-48.767c-1.657,0-3,1.343-3,3v106.754
	c0,1.657,1.343,3,3,3h18.927c1.657,0,3-1.343,3-3v-32.612c0-1.657,1.343-3,3-3h9.339c1.267,0,2.397,0.796,2.824,1.989l12.399,34.635
	c0.427,1.193,1.557,1.989,2.824,1.989h21.107c2.116,0,3.567-2.131,2.791-4.099l-14.194-36.036c-0.54-1.372-0.008-2.927,1.262-3.677
	C343.115,265.827,351.601,257.69,351.601,235.663z"/>
<path style="fill:#E82934;" d="M316.509,248.277h-19.383v-23.163h21.447c1.905,0,7.48,2.106,7.48,11.581
	C326.052,248.019,320.32,248.277,316.509,248.277z"/>
<g>
	<path style="fill:#FFFFFF;" d="M452.761,202.623v106.754c0,1.657,1.343,3,3,3h19.564c1.657,0,3-1.343,3-3V202.623
		c0-1.657-1.343-3-3-3h-19.564C454.104,199.623,452.761,200.966,452.761,202.623z"/>
	<path style="fill:#FFFFFF;" d="M432.748,253.406c-1.93-1.025-2.251-3.643-0.549-5.012c5.229-4.203,8.174-11.305,8.174-22.255
		c0-19.624-17.311-26.517-22.076-26.517h-53.214c-1.657,0-3,1.343-3,3v106.754c0,1.657,1.343,3,3,3h48.294
		c6.03,0,30.493,2.386,30.493-33.46c0-7.986-0.953-13.13-3.978-18.281C437.753,256.873,435.257,254.738,432.748,253.406z"/>
</g>
<g>
	<path style="fill:#E82934;" d="M386.221,225.629c0-1.139,0.922-2.062,2.06-2.062h20.172c2.378,0,5.078,6.172,5.078,9.523
		c0,5.153-1.423,10.296-5.235,10.296H388.28c-1.138,0-2.06-0.923-2.06-2.062L386.221,225.629L386.221,225.629z"/>
	<path style="fill:#E82934;" d="M410.045,289.999h-21.763c-1.138,0-2.06-0.923-2.06-2.062v-17.504c0-1.139,0.922-2.062,2.06-2.062
		h21.283c3.015,0,6.457,3.445,6.457,10.361S412.423,289.999,410.045,289.999z"/>
</g>
<path style="fill:#FFFFFF;" d="M216.439,267.849h36.717c1.657,0,3-1.343,3-3v-16.643c0-1.657-1.343-3-3-3h-36.559
	c-1.657,0-3-1.343-3-3V227.85c0-1.657,1.343-3,3-3h40.214c1.657,0,3-1.343,3-3v-19.226c0-1.657-1.343-3-3-3h-65.782
	c-1.657,0-3,1.343-3,3v106.754c0,1.657,1.343,3,3,3h66.734c1.657,0,3-1.343,3-3v-19.479c0-1.657-1.343-3-3-3h-41.324
	c-1.657,0-3-1.343-3-3V270.85C213.439,269.192,214.783,267.849,216.439,267.849z"/>
<g>
</g>
<g>
</g>
<g>
</g>
<g>
</g>
<g>
</g>
<g>
</g>
<g>
</g>
<g>
</g>
<g>
</g>
<g>
</g>
<g>
</g>
<g>
</g>
<g>
</g>
<g>
</g>
<g>
</g>
</svg>
