<?xml version="1.0" encoding="iso-8859-1"?>
<!-- Generator: Adobe Illustrator 19.0.0, SVG Export Plug-In . SVG Version: 6.00 Build 0)  -->
<svg version="1.1" id="Capa_1" xmlns="http://www.w3.org/2000/svg" xmlns:xlink="http://www.w3.org/1999/xlink" x="0px" y="0px"
	 viewBox="0 0 512 512" style="enable-background:new 0 0 512 512;" xml:space="preserve">
<g>
	<path style="fill:#00539E;" d="M256,0C114.618,0,0,114.618,0,256s114.618,256,256,256s256-114.618,256-256S397.382,0,256,0z
		 M256,470.793C137.56,470.793,41.207,374.44,41.207,256S137.56,41.207,256,41.207S470.793,137.56,470.793,256
		S374.44,470.793,256,470.793z"/>
	<path style="fill:#004380;" d="M256,0c-4.318,0-8.611,0.111-12.877,0.322C378.522,7.031,486.245,118.936,486.245,256
		S378.522,504.969,243.123,511.678C247.389,511.889,251.682,512,256,512c141.382,0,256-114.618,256-256S397.382,0,256,0z"/>
	<path style="fill:#00539E;" d="M354.31,238.923c0-10.882-8.817-19.704-19.697-19.704c-10.878,0-19.696,8.822-19.696,19.704
		l0.34,34.235c0,32.646-26.454,59.112-59.088,59.112c-32.635,0-59.09-26.465-59.09-59.112l-0.341-34.235
		c0-10.882-8.818-19.704-19.697-19.704c-10.878,0-19.697,8.822-19.697,19.704l0.326,89.219c0.008,2.282-1.839,4.136-4.121,4.136
		h-31.151c-2.27,0-4.113-1.836-4.121-4.106l-0.322-89.249c0-32.647,26.455-59.112,59.089-59.112c32.635,0,59.09,26.465,59.09,59.112
		l0.337,34.235c0,10.883,8.814,19.705,19.693,19.705c10.877,0,19.699-8.822,19.699-19.705l-0.337-34.235
		c0-32.647,26.455-59.112,59.089-59.112s59.09,26.465,59.09,59.112l0.322,89.22c0.008,2.282-1.839,4.136-4.121,4.136h-31.152
		c-2.27,0-4.112-1.836-4.121-4.106L354.31,238.923L354.31,238.923z"/>
	<path style="fill:#004380;" d="M393.707,238.924c0-32.647-26.456-59.112-59.09-59.112c-4.425,0-8.73,0.502-12.877,1.425
		c26.439,5.881,46.213,29.466,46.213,57.687l0.337,93.355h21.619c2.282,0,4.129-1.854,4.121-4.136L393.707,238.924z"/>
</g>
<g>
</g>
<g>
</g>
<g>
</g>
<g>
</g>
<g>
</g>
<g>
</g>
<g>
</g>
<g>
</g>
<g>
</g>
<g>
</g>
<g>
</g>
<g>
</g>
<g>
</g>
<g>
</g>
<g>
</g>
</svg>
