<?xml version="1.0" encoding="iso-8859-1"?>
<!-- Generator: Adobe Illustrator 19.0.0, SVG Export Plug-In . SVG Version: 6.00 Build 0)  -->
<svg version="1.1" id="Capa_1" xmlns="http://www.w3.org/2000/svg" xmlns:xlink="http://www.w3.org/1999/xlink" x="0px" y="0px"
	 viewBox="0 0 512 512" style="enable-background:new 0 0 512 512;" xml:space="preserve">
<path style="fill:#00539E;" d="M490,256.002C490,114.688,375.001,0,233.351,0C146.286,0,69.097,43.286,22.568,109.63
	c-1.307,1.863-0.244,4.449,2.003,4.836l64.348,11.086c1.332,0.229,2.361,1.293,2.544,2.628l17.148,125.472
	c0.482,3.527,5.577,3.58,6.134,0.065l18.526-116.99c0.27-1.705,1.888-2.859,3.594-2.563l65.175,11.308
	c1.485,0.258,2.569,1.542,2.569,3.045v223.652c0,1.504-1.086,2.789-2.573,3.045l-38.455,6.621c-1.895,0.326-3.628-1.128-3.628-3.045
	v-94.642c0-5.08,0.007-9.655,0.02-13.774c0.012-3.762-5.453-4.269-6.147-0.571l-21.712,115.668c-0.238,1.27-1.244,2.258-2.521,2.477
	l-39.549,6.789c-1.657,0.284-3.239-0.799-3.567-2.443L60.432,261.697c-0.732-3.669-6.153-3.129-6.141,0.612l0.431,135.981
	c0.005,1.505-1.079,2.795-2.566,3.054l-21.77,3.796c-2.288,0.399-3.334,3.068-1.938,4.919C75.382,472.253,149.444,512,233.351,512
	C375.001,512,490,397.312,490,256.002L490,256.002L490,256.002z M402.238,340.477l-21.52,3.567c-1.716,0.284-3.331-0.894-3.577-2.61
	l-2.207-15.35c-0.241-1.675-1.788-2.846-3.472-2.626l-18.202,2.378c-1.393,0.182-2.489,1.275-2.671,2.663l-2.487,18.94
	c-0.176,1.337-1.201,2.407-2.533,2.642l-25.263,4.464c-2.111,0.373-3.956-1.452-3.598-3.56l30.082-176.931
	c0.287-1.686,1.893-2.82,3.584-2.529l24.515,4.218c1.314,0.226,2.336,1.265,2.537,2.579L402.238,340.477L402.238,340.477z
	 M323.163,215.017l-24.313-2.227c-1.817-0.166-3.384,1.259-3.384,3.078v140.425c0,1.504-1.086,2.789-2.572,3.045l-35.368,6.099
	c-1.895,0.327-3.629-1.128-3.629-3.045V211.729c0-1.603-1.229-2.939-2.83-3.079l-29.758-2.59c-1.602-0.139-2.83-1.476-2.83-3.079
	v-51.338c0-1.922,1.741-3.378,3.64-3.043l98.483,17.345c1.481,0.261,2.561,1.544,2.561,3.043V215.017L323.163,215.017z
	 M364.655,238.754c-0.142-1.198-1.879-1.218-2.049-0.024l-6.529,45.741c-0.278,1.947,1.314,3.654,3.282,3.519l7.797-0.535
	c1.768-0.121,3.074-1.692,2.866-3.446L364.655,238.754z"/>
<path style="fill:#004380;" d="M233.351,0c-5.233,0-10.429,0.16-15.586,0.469c134.518,7.926,241.31,119.359,241.31,255.533
	c0,136.193-106.827,247.64-241.376,255.533c5.176,0.308,10.395,0.465,15.653,0.465C375.001,512,490,397.311,490,256.002
	C490,114.689,375.001,0,233.351,0z"/>
<g>
</g>
<g>
</g>
<g>
</g>
<g>
</g>
<g>
</g>
<g>
</g>
<g>
</g>
<g>
</g>
<g>
</g>
<g>
</g>
<g>
</g>
<g>
</g>
<g>
</g>
<g>
</g>
<g>
</g>
</svg>
