<?xml version="1.0" encoding="iso-8859-1"?>
<!-- Generator: Adobe Illustrator 19.0.0, SVG Export Plug-In . SVG Version: 6.00 Build 0)  -->
<svg version="1.1" id="Capa_1" xmlns="http://www.w3.org/2000/svg" xmlns:xlink="http://www.w3.org/1999/xlink" x="0px" y="0px"
	 viewBox="0 0 512 512" style="enable-background:new 0 0 512 512;" xml:space="preserve">
<path style="fill:#E42111;" d="M255.903,44C138.988,44,44,138.966,44,255.855C44,373.034,138.988,468,255.903,468
	C373.012,468,468,373.034,468,255.855C468,138.966,373.012,44,255.903,44z M255.903,392.726
	c-75.583,0-136.611-61.403-136.611-136.871s61.029-136.58,136.611-136.58c75.486,0,136.805,61.112,136.805,136.58
	S331.389,392.726,255.903,392.726z"/>
<g>
	<path style="fill:#C91D0F;" d="M240.384,120.154c-5.09-0.574-10.262-0.879-15.505-0.879c-75.583,0-136.611,61.112-136.611,136.58
		s61.029,136.871,136.611,136.871c5.243,0,10.414-0.307,15.505-0.883c-68.243-7.725-121.092-65.761-121.092-135.988
		S172.141,127.844,240.384,120.154z"/>
	<path style="fill:#C91D0F;" d="M255.903,44c-5.213,0-10.38,0.197-15.5,0.568c109.864,7.953,196.572,99.61,196.572,211.286
		c0,111.955-86.708,203.624-196.572,211.577c5.119,0.371,10.287,0.568,15.5,0.568C373.012,468,468,373.034,468,255.855
		C468,138.966,373.012,44,255.903,44z"/>
</g>
<path style="fill:#223387;" d="M0,213.642v84.716c0,2.209,1.791,4,4,4h504c2.209,0,4-1.791,4-4v-84.716c0-2.209-1.791-4-4-4H4
	C1.791,209.642,0,211.433,0,213.642z"/>
<path style="fill:#1E2C75;" d="M481.095,209.642v92.716H508c2.209,0,4-1.791,4-4v-84.716c0-2.209-1.791-4-4-4H481.095z"/>
<g>
	<path style="fill:#FFFFFF;" d="M47.494,227.223c-4.142,0-7.5,3.357-7.5,7.5v35.053H27.589v-35.053c0-4.143-3.358-7.5-7.5-7.5
		s-7.5,3.357-7.5,7.5v39.148c0,6.013,4.836,10.904,10.78,10.904h20.845c5.944,0,10.78-4.892,10.78-10.904v-39.148
		C54.994,230.581,51.636,227.223,47.494,227.223z"/>
	<path style="fill:#FFFFFF;" d="M403.33,227.223c-4.143,0-7.5,3.357-7.5,7.5v35.053h-12.405v-35.053c0-4.143-3.357-7.5-7.5-7.5
		s-7.5,3.357-7.5,7.5v39.148c0,6.013,4.836,10.904,10.78,10.904h20.845c5.944,0,10.78-4.892,10.78-10.904v-39.148
		C410.83,230.581,407.473,227.223,403.33,227.223z"/>
	<path style="fill:#FFFFFF;" d="M94.58,227.223c-4.142,0-7.5,3.357-7.5,7.5v17.056l-13.6-21.116
		c-1.802-2.798-5.231-4.073-8.422-3.135c-3.191,0.939-5.383,3.868-5.383,7.195v42.553c0,4.143,3.358,7.5,7.5,7.5s7.5-3.357,7.5-7.5
		V260.22l13.6,21.116c1.406,2.184,3.804,3.44,6.306,3.44c0.704,0,1.416-0.1,2.116-0.306c3.191-0.939,5.383-3.868,5.383-7.195
		v-42.553C102.08,230.581,98.722,227.223,94.58,227.223z"/>
	<path style="fill:#FFFFFF;" d="M447.621,227.223c-4.143,0-7.5,3.357-7.5,7.5v17.056l-13.6-21.116
		c-1.802-2.798-5.233-4.072-8.422-3.135c-3.192,0.939-5.384,3.868-5.384,7.195v42.553c0,4.143,3.357,7.5,7.5,7.5s7.5-3.357,7.5-7.5
		V260.22l13.6,21.116c1.406,2.184,3.804,3.44,6.306,3.44c0.704,0,1.416-0.1,2.116-0.306c3.192-0.939,5.384-3.868,5.384-7.195
		v-42.553C455.121,230.581,451.764,227.223,447.621,227.223z"/>
	<path style="fill:#FFFFFF;" d="M123.833,227.223h-9.027c-5.978,0-10.841,4.863-10.841,10.841v35.87
		c0,5.979,4.863,10.842,10.841,10.842h9.027c12.427,0,22.537-10.11,22.537-22.537V249.76
		C146.371,237.334,136.26,227.223,123.833,227.223z M131.371,262.239c0,4.156-3.381,7.537-7.537,7.537h-4.868v-27.553h4.868
		c4.156,0,7.537,3.381,7.537,7.537V262.239z"/>
	<path style="fill:#FFFFFF;" d="M183.161,242.223c4.142,0,7.5-3.357,7.5-7.5s-3.358-7.5-7.5-7.5h-24.125
		c-5.944,0-10.78,4.892-10.78,10.904v35.744c0,6.013,4.836,10.904,10.78,10.904h24.125c4.142,0,7.5-3.357,7.5-7.5
		s-3.358-7.5-7.5-7.5h-19.905v-6.729h19.905c4.142,0,7.5-3.357,7.5-7.5s-3.358-7.5-7.5-7.5h-19.905v-5.823L183.161,242.223
		L183.161,242.223z"/>
	<path style="fill:#FFFFFF;" d="M253.177,242.223h17.281c4.143,0,7.5-3.357,7.5-7.5s-3.357-7.5-7.5-7.5h-17.281
		c-9.718,0-17.624,8.078-17.624,18.007v11.248v3.891v11.895c0,6.899,5.613,12.513,12.512,12.513h17.381
		c6.899,0,12.512-5.613,12.512-12.513v-10.772c0-6.899-5.612-12.513-12.512-12.513h-14.893v-3.748
		C250.553,243.572,251.73,242.223,253.177,242.223z M262.958,269.776h-12.405v-5.798h12.405V269.776z"/>
	<path style="fill:#FFFFFF;" d="M348.507,227.223h-6.34c-9.943,0-18.033,8.09-18.033,18.033v21.486
		c0,9.943,8.09,18.033,18.033,18.033h6.34c9.943,0,18.032-8.09,18.032-18.033v-21.486
		C366.539,235.313,358.45,227.223,348.507,227.223z M351.539,266.743c0,1.673-1.36,3.033-3.032,3.033h-6.34
		c-1.673,0-3.033-1.36-3.033-3.033v-21.486c0-1.673,1.36-3.033,3.033-3.033h6.34c1.672,0,3.032,1.36,3.032,3.033V266.743z"/>
	<path style="fill:#FFFFFF;" d="M476.874,227.223h-9.026c-5.979,0-10.842,4.863-10.842,10.841v35.87
		c0,5.979,4.863,10.842,10.842,10.842h9.026c12.427,0,22.537-10.11,22.537-22.537V249.76
		C499.411,237.334,489.301,227.223,476.874,227.223z M484.411,262.239c0,4.156-3.381,7.537-7.537,7.537h-4.868v-27.553h4.868
		c4.156,0,7.537,3.381,7.537,7.537V262.239z"/>
	<path style="fill:#FFFFFF;" d="M231.608,271.033l-8.815-5.869c7.111-2.828,12.159-9.764,12.159-17.871v-0.833
		c0-10.607-8.63-19.237-19.238-19.237h-12.379c-5.948,0-10.788,4.839-10.788,10.787v21.021v0.028c0,0.01,0,0.019,0,0.028v18.189
		c0,4.143,3.358,7.5,7.5,7.5s7.5-3.357,7.5-7.5v-4.242l15.749,10.485c1.278,0.851,2.721,1.258,4.149,1.258
		c2.425,0,4.805-1.175,6.25-3.345C235.99,277.984,235.056,273.329,231.608,271.033z M207.546,242.223h8.167
		c2.337,0,4.238,1.9,4.238,4.237v0.833c0,2.337-1.901,4.237-4.238,4.237h-8.167L207.546,242.223L207.546,242.223z"/>
	<path style="fill:#FFFFFF;" d="M318.905,271.033l-8.815-5.869c7.112-2.827,12.159-9.764,12.159-17.871v-0.833
		c0-10.607-8.63-19.237-19.238-19.237h-12.379c-5.948,0-10.788,4.839-10.788,10.787v21.021v0.031c0,0.008,0,0.015,0,0.023v18.191
		c0,4.143,3.357,7.5,7.5,7.5s7.5-3.357,7.5-7.5v-4.242l15.749,10.485c1.277,0.851,2.722,1.258,4.149,1.258
		c2.425,0,4.805-1.175,6.25-3.345C323.287,277.984,322.354,273.329,318.905,271.033z M294.844,242.223h8.167
		c2.337,0,4.238,1.9,4.238,4.237v0.833c0,2.337-1.901,4.237-4.238,4.237h-8.167V242.223z"/>
</g>
<g>
</g>
<g>
</g>
<g>
</g>
<g>
</g>
<g>
</g>
<g>
</g>
<g>
</g>
<g>
</g>
<g>
</g>
<g>
</g>
<g>
</g>
<g>
</g>
<g>
</g>
<g>
</g>
<g>
</g>
</svg>
