<?xml version="1.0" encoding="iso-8859-1"?>
<!-- Generator: Adobe Illustrator 19.0.0, SVG Export Plug-In . SVG Version: 6.00 Build 0)  -->
<svg version="1.1" id="Capa_1" xmlns="http://www.w3.org/2000/svg" xmlns:xlink="http://www.w3.org/1999/xlink" x="0px" y="0px"
	 viewBox="0 0 512 512" style="enable-background:new 0 0 512 512;" xml:space="preserve">
<path style="fill:#00ADDC;" d="M481.095,512H30.905C13.907,512,0,498.093,0,481.095V30.905C0,13.907,13.907,0,30.905,0h450.189
	C498.093,0,512,13.907,512,30.905v450.189C512,498.093,498.093,512,481.095,512z"/>
<path style="fill:#0092BA;" d="M481.095,0h-26.012c16.998,0,30.905,13.907,30.905,30.905v450.189
	c0,16.998-13.907,30.905-30.905,30.905h26.012C498.093,512,512,498.093,512,481.095V30.905C512,13.907,498.093,0,481.095,0z"/>
<path style="fill:#FFFFFF;" d="M256.248,315.14c-14.815,0-26.455-3.706-26.455-15.881c0-10.226,8.059-25.827,22.53-42.683
	c2.065-2.406,5.786-2.406,7.852,0c14.471,16.856,22.53,32.457,22.53,42.683C282.704,311.434,270.534,315.14,256.248,315.14z
	 M256.248,351.136c43.387,0,61.377-14.822,61.377-36.526c0-24.313-22.779-53.742-40.885-73.466
	c-1.957-2.131-1.767-5.458,0.414-7.359c34.361-29.951,77.655-51.369,94.97-34.046c20.037,20.561,1.661,79.054-44.473,144.947
	c-2.032,2.903-0.609,6.944,2.799,7.914l54.129,15.41c2.31,0.657,4.778-0.365,5.929-2.473c52.794-96.684,63.69-190.996,26.06-216.617
	c-29.025-20.223-101.206,18.476-156.861,68.828c-1.971,1.783-4.955,1.79-6.934,0.016c-56.155-50.36-128.348-89.069-157.376-68.844
	c-37.633,25.623-26.732,119.949,26.583,216.64c1.156,2.096,3.617,3.11,5.919,2.454l54.144-15.414
	c3.409-0.97,4.832-5.013,2.799-7.916c-46.161-65.893-65.022-124.386-44.471-144.946c17.308-17.315,60.081,4.076,94.868,34.006
	c2.217,1.907,2.407,5.288,0.404,7.419c-18.538,19.723-41.303,49.141-41.303,73.446C194.342,336.314,212.332,351.136,256.248,351.136
	z"/>
<g>
</g>
<g>
</g>
<g>
</g>
<g>
</g>
<g>
</g>
<g>
</g>
<g>
</g>
<g>
</g>
<g>
</g>
<g>
</g>
<g>
</g>
<g>
</g>
<g>
</g>
<g>
</g>
<g>
</g>
</svg>
