<?xml version="1.0" encoding="iso-8859-1"?>
<!-- Generator: Adobe Illustrator 19.0.0, SVG Export Plug-In . SVG Version: 6.00 Build 0)  -->
<svg version="1.1" id="Capa_1" xmlns="http://www.w3.org/2000/svg" xmlns:xlink="http://www.w3.org/1999/xlink" x="0px" y="0px"
	 viewBox="0 0 512.001 512.001" style="enable-background:new 0 0 512.001 512.001;" xml:space="preserve">
<g>
	<path style="fill:#00539E;" d="M512,4.121V507.88c0,2.276-1.845,4.121-4.121,4.121H4.121C1.845,512,0,510.155,0,507.879V4.121
		C0,1.845,1.845,0,4.121,0H507.88C510.155,0,512,1.845,512,4.121z"/>
	<path style="fill:#004380;" d="M486.245,0v512h21.634c2.276,0,4.121-1.845,4.121-4.121V4.121C512,1.845,510.155,0,507.879,0
		H486.245z"/>
	<path style="fill:#FFFFFF;" d="M295.488,359.192l96.793-96.778c1.679-1.679,4.431-1.603,6.014,0.166l29.728,33.213
		c1.452,1.623,1.387,4.09-0.15,5.634L258.938,471.12c-1.617,1.624-4.254,1.624-5.87,0L84.166,301.463
		c-1.552-1.559-1.602-4.056-0.113-5.674l30.378-33.043c1.594-1.734,4.321-1.788,5.984-0.118l96.093,96.525
		c2.598,2.61,7.068,0.778,7.068-2.896l-0.002-200.544c0-3.67-4.46-5.504-7.061-2.903l-96.794,96.778
		c-1.679,1.679-4.431,1.603-6.014-0.166l-29.727-33.213c-1.452-1.623-1.387-4.09,0.15-5.634L253.062,40.88
		c1.617-1.624,4.254-1.624,5.87,0l168.901,169.657c1.552,1.559,1.602,4.056,0.113,5.674l-30.377,33.043
		c-1.594,1.734-4.322,1.788-5.984,0.118l-96.094-96.525c-2.598-2.61-7.068-0.778-7.068,2.896l0.003,200.544
		C288.427,359.958,292.887,361.792,295.488,359.192z"/>
</g>
<g>
</g>
<g>
</g>
<g>
</g>
<g>
</g>
<g>
</g>
<g>
</g>
<g>
</g>
<g>
</g>
<g>
</g>
<g>
</g>
<g>
</g>
<g>
</g>
<g>
</g>
<g>
</g>
<g>
</g>
</svg>
