<?xml version="1.0" encoding="iso-8859-1"?>
<!-- Generator: Adobe Illustrator 19.0.0, SVG Export Plug-In . SVG Version: 6.00 Build 0)  -->
<svg version="1.1" id="Capa_1" xmlns="http://www.w3.org/2000/svg" xmlns:xlink="http://www.w3.org/1999/xlink" x="0px" y="0px"
	 viewBox="0 0 512 512" style="enable-background:new 0 0 512 512;" xml:space="preserve">
<g>
	<path style="fill:#007D55;" d="M379.41,464.07c0.14,1.25,0.28,2.47,0.42,3.65C379.69,466.54,379.55,465.33,379.41,464.07z"/>
	<circle style="fill:#009A68;" cx="256" cy="256" r="256"/>
	<path style="fill:#007D55;" d="M256,0c-4.318,0-8.611,0.111-12.877,0.322C378.524,7.03,486.245,118.934,486.245,256
		S378.524,504.97,243.123,511.678C247.389,511.889,251.682,512,256,512c141.385,0,256-114.615,256-256S397.385,0,256,0z"/>
	<path style="fill:#E2001A;" d="M179.383,500.323C75.441,467.775,0,370.677,0,256c0-53.29,16.274-102.766,44.147-143.726
		c-1.358,2.325-1.698,5.224-0.574,8.02c32.81,81.711,137.378,149.995,137.378,149.995
		C175.987,346.88,178.338,460.722,179.383,500.323z"/>
	<g>
		<path style="fill:#014896;" d="M384,477.754C346.332,499.54,302.629,512,256,512c-7.55,0-15.02-0.339-22.413-0.992l38.008-177.189
			c22.153,13.114,99.162,55.745,106.946,62.955C378.75,428.695,381.727,458.997,384,477.754z"/>
		<path style="fill:#014896;" d="M256,512c-4.203,0-8.386-0.103-12.537-0.309C247.625,511.825,252.003,510.722,256,512z"/>
	</g>
	<path style="fill:#F8B31F;" d="M512,256c0,15.621-1.411,30.929-4.075,45.793c-18.181,4.31-48.64,12.251-79.699,23.563
		c-9.483-4.833-76.251-62.145-96.236-78.367l156.004-99.344C503.406,180.559,512,217.26,512,256z"/>
	<path style="fill:#D1851C;" d="M491.154,357.277c-14.054,32.653-34.744,61.805-60.343,85.733l13.009-53.838L491.154,357.277z"/>
	<path style="fill:#FFFFFF;" d="M507.925,301.793c-3.5,19.33-9.168,37.904-16.77,55.484l-46.046,31.027
		c-0.829,0.558-1.418,1.406-1.653,2.378l-12.644,52.328c-14.184,13.297-29.884,24.948-46.811,34.744
		c-2.228-18.386-5.133-47.866-5.444-79.09c-0.012-1.245-0.592-2.419-1.593-3.16c-12.565-9.298-75.247-44.185-100.617-58.905
		c-2.351-1.364-5.342-0.033-5.912,2.625l-36.848,171.784c-18.73-1.594-36.858-5.251-54.204-10.684
		c-1.034-39.209-3.349-151.195,1.422-227.748c0.088-1.413-0.568-2.754-1.741-3.548c-14.252-9.656-105.284-73.504-135.492-148.733
		c-1.124-2.795-0.784-5.695,0.574-8.02c0.261-0.418,0.523-0.836,0.835-1.228c0-0.026,0.027-0.026,0.054-0.052
		c1.698-2.116,4.335-3.501,7.392-3.422c81.049,2.117,172.572,65.213,186.583,75.21c1.153,0.822,2.637,0.971,3.931,0.397
		c72.783-32.308,184.059-70.778,216.97-81.981c10.92,14.367,20.375,29.936,28.082,46.446l-151.346,96.378
		c-2.291,1.459-2.499,4.724-0.404,6.453c22.612,18.669,77.142,65.265,90.242,73.838c1.044,0.683,2.349,0.819,3.522,0.396
		C460.446,313.741,490.091,306.02,507.925,301.793z"/>
	<path style="fill:#263AA3;" d="M384,477.757C346.337,499.535,302.626,512,256,512c-3.997-1.278-8.375-0.175-12.537-0.309
		c-0.083-0.011-0.155-0.011-0.237-0.021c51.921-2.575,99.763-20.645,139.023-49.655c0.134,1.38,0.278,2.73,0.422,4.038
		c0.154,1.473,0.309,2.915,0.464,4.296c0.144,1.288,0.288,2.545,0.433,3.76C383.712,475.367,383.856,476.582,384,477.757z"/>
	<g>
		<path style="fill:#CFCFCF;" d="M507.921,301.792c-3.492,19.336-9.169,37.9-16.761,55.485l-38.858,26.187
			c13.186-22.911,22.922-48.058,28.505-74.729C491.324,305.84,500.616,303.522,507.921,301.792z"/>
		<path style="fill:#CFCFCF;" d="M440.814,401.637l-10.003,41.372c-14.186,13.3-29.886,24.951-46.811,34.748
			c-0.556-4.595-1.164-9.9-1.751-15.741C404.923,445.255,424.733,424.837,440.814,401.637z"/>
	</g>
	<path style="fill:#D1851C;" d="M512,256c0,15.618-1.411,30.926-4.079,45.792c-4.11,0.978-8.849,2.132-14.082,3.482
		c-1.102,0.278-2.225,0.566-3.379,0.876c-3.07,0.803-6.305,1.658-9.653,2.586c3.564-17.019,5.439-34.655,5.439-52.735
		c0-33.759-6.531-65.993-18.42-95.508l20.171-12.847C503.408,180.56,512,217.265,512,256z"/>
	<path style="fill:#CFCFCF;" d="M487.997,147.645l-20.171,12.847c-7.469-18.595-17.07-36.098-28.485-52.22
		c8.458-2.936,15.463-5.337,20.573-7.077C470.834,115.566,480.291,131.132,487.997,147.645z"/>
</g>
<g>
</g>
<g>
</g>
<g>
</g>
<g>
</g>
<g>
</g>
<g>
</g>
<g>
</g>
<g>
</g>
<g>
</g>
<g>
</g>
<g>
</g>
<g>
</g>
<g>
</g>
<g>
</g>
<g>
</g>
</svg>
