<?xml version="1.0" encoding="iso-8859-1"?>
<!-- Generator: Adobe Illustrator 19.0.0, SVG Export Plug-In . SVG Version: 6.00 Build 0)  -->
<svg version="1.1" id="Capa_1" xmlns="http://www.w3.org/2000/svg" xmlns:xlink="http://www.w3.org/1999/xlink" x="0px" y="0px"
	 viewBox="0 0 512 512" style="enable-background:new 0 0 512 512;" xml:space="preserve">
<path style="fill:#2EE3FF;" d="M511.61,308.81c-8.68,12.05-41.38,44.58-140.739,43.14c-121.839-1.76-206.459-79.24-276.678-130.899
	c-29.5-21.7-52.22-34.24-68.65-41.49c-10.51-4.64-18.45-7.11-23.94-8.42c-2.22-0.53-2.1-3.64,0.15-4.03
	c14.53-2.51,35.5-2.16,40.62-0.07c26.83,10.95,20.27-2.88,48.44,6.26c30.4,9.86,67.82,52.83,103.829,68.09
	c7.33,3.1,14.51,5.86,21.64,7.74c27.87,7.37,54.85,1.38,86.17-49.21c23.67-38.24,43.21-39.92,43.21-39.92H504.15
	c2.27,0,2.93,3.04,0.86,3.95c-34.81,15.18-155.069,71.43-148.929,121.469c6.43,52.36,127.269,26.42,153.309,20.2
	C511.27,305.17,512.73,307.259,511.61,308.81z"/>
<g>
	<path style="fill:#21AADB;" d="M470.495,163.95c-34.806,15.18-155.062,71.429-148.923,121.467
		c3.633,29.608,43.853,34.176,82.829,31.435c-25.366-2.285-45.779-10.743-48.318-31.435
		C349.944,235.379,470.2,179.13,505.006,163.95c2.074-0.905,1.412-3.949-0.857-3.949h-34.511
		C471.907,160.001,472.569,163.045,470.495,163.95z"/>
	<path style="fill:#21AADB;" d="M509.392,305.622c-6.701,1.6-19.689,4.505-35.382,7.046
		c-11.112,12.644-41.118,35.676-113.623,38.938c3.464,0.175,6.955,0.296,10.481,0.347c99.36,1.436,132.059-31.095,140.741-43.145
		C512.728,307.256,511.273,305.173,509.392,305.622z"/>
	<path style="fill:#21AADB;" d="M216.392,249.171c-18.8,6.1-37.03,0.37-56.26-7.78c-36.02-15.26-68.63-52.81-103.799-58.06
		c-13.38-2-22.39-2.63-30.79-3.77c-10.51-4.64-18.45-7.11-23.94-8.42c-2.22-0.53-2.1-3.64,0.15-4.03
		c14.53-2.51,35.5-2.16,40.62-0.07c26.83,10.95,20.27-2.88,48.44,6.26c30.4,9.86,67.82,52.83,103.829,68.09
		c7.33,3.1,14.51,5.86,21.64,7.74C216.322,249.151,216.352,249.161,216.392,249.171z"/>
</g>
<g>
</g>
<g>
</g>
<g>
</g>
<g>
</g>
<g>
</g>
<g>
</g>
<g>
</g>
<g>
</g>
<g>
</g>
<g>
</g>
<g>
</g>
<g>
</g>
<g>
</g>
<g>
</g>
<g>
</g>
</svg>
