<?xml version="1.0" encoding="iso-8859-1"?>
<!-- Generator: Adobe Illustrator 19.0.0, SVG Export Plug-In . SVG Version: 6.00 Build 0)  -->
<svg version="1.1" id="Capa_1" xmlns="http://www.w3.org/2000/svg" xmlns:xlink="http://www.w3.org/1999/xlink" x="0px" y="0px"
	 viewBox="0 0 512.001 512.001" style="enable-background:new 0 0 512.001 512.001;" xml:space="preserve">
<g>
	<path style="fill:#2C44BF;" d="M381.586,2.357v177.958c0,0-55.897,82.48-116.395,130.972
		c-39.038,31.29-108.918,81.598-94.647,145.57c0,0,9.191,33.427,40.828,51.282c2.042,1.153,0.844,4.282-1.453,3.814
		c-24.898-5.076-74.886-23.625-79.631-90.905c-6.343-89.953,93.868-155.268,133.281-195.726
		c59.049-60.614,96.349-106.631,95.833-202.098C359.221-10.345,381.586,2.357,381.586,2.357z"/>
	<path style="fill:#263AA3;" d="M359.402,23.223c0.102,18.804-1.27,35.683-3.98,51.139v38.778c0,46.894-16.55,92.304-46.821,128.184
		c-19.91,23.599-44.342,49.736-69.574,69.961c-39.038,31.29-108.918,81.599-94.647,145.57c0,0,4.902,17.782,19.826,34.336
		c15.805,12.71,33.682,18.307,45.708,20.76c2.303,0.47,3.503-2.659,1.458-3.814c-31.637-17.855-40.827-51.281-40.827-51.281
		c-14.271-63.972,55.609-114.28,94.647-145.57c60.499-48.491,116.395-130.971,116.395-130.971V2.357
		C381.586,2.357,359.221-10.345,359.402,23.223z"/>
	<path style="fill:#E82934;" d="M381.586,302.553c0,0-22.7,37.379-76.941,73.26c-53.847,35.621-62.196,60.516-52.284,92.698
		c6.246,20.28,25.926,36.624,39.46,43.261c2.153,1.056,4.054-1.795,2.276-3.404c-14.759-13.352-36.21-43.48-15.042-72.684
		c29.602-40.841,55.72-25.362,64.442-20.322C343.498,415.361,386.655,412.913,381.586,302.553z"/>
	<path style="fill:#C7232C;" d="M381.586,302.553c0,0-8.146,13.401-26.314,31.853c-2.234,46.947-15.29,66.687-25.519,74.973
		c6.132,1.542,10.878,4.326,13.745,5.982C343.498,415.361,386.655,412.913,381.586,302.553z"/>
	<path style="fill:#F3DB53;" d="M381.586,212.655c0,0-37.661,67.673-96.475,112.629c-52.189,39.892-95.439,73.901-87.866,121.948
		c5.145,32.648,31.284,55.574,47.538,64.422c2.085,1.135,4.116-1.586,2.444-3.274c-13.107-13.231-32.398-43.473-22.478-77.023
		c12.23-41.358,46.173-62.536,76.017-84.721c20.587-15.303,67.618-59.842,80.819-83.837v-50.144H381.586z"/>
	<path style="fill:#F8B31F;" d="M354.423,297.135c11.801-12.599,22.037-25.017,27.163-34.335v-50.146c0,0-9.282,16.675-25.82,38.965
		C355.766,251.62,354.248,293.408,354.423,297.135z"/>
</g>
<g>
</g>
<g>
</g>
<g>
</g>
<g>
</g>
<g>
</g>
<g>
</g>
<g>
</g>
<g>
</g>
<g>
</g>
<g>
</g>
<g>
</g>
<g>
</g>
<g>
</g>
<g>
</g>
<g>
</g>
</svg>
