<?xml version="1.0" encoding="iso-8859-1"?>
<!-- Generator: Adobe Illustrator 19.0.0, SVG Export Plug-In . SVG Version: 6.00 Build 0)  -->
<svg version="1.1" id="Capa_1" xmlns="http://www.w3.org/2000/svg" xmlns:xlink="http://www.w3.org/1999/xlink" x="0px" y="0px"
	 viewBox="0 0 512 512" style="enable-background:new 0 0 512 512;" xml:space="preserve">
<g>
	<path style="fill:#2EE3FF;" d="M139.133,296.167h-42.62c-0.555,0-1.087,0.224-1.475,0.621l-43.474,44.547
		c-1.29,1.322-3.535,0.409-3.535-1.438v-41.67c0-1.137-0.922-2.06-2.06-2.06H2.06c-1.138,0-2.06,0.922-2.06,2.06V426.94
		c0,1.137,0.922,2.06,2.06,2.06h44.299c1.138,0,2.06-0.922,2.06-2.06v-40.866c0-1.858,2.266-2.766,3.55-1.423l41.779,43.711
		c0.389,0.407,0.927,0.637,1.49,0.637h58.493c1.816,0,2.744-2.178,1.486-3.486l-66.22-68.895c-0.764-0.795-0.766-2.05-0.005-2.848
		l51.633-54.123C141.875,298.337,140.945,296.167,139.133,296.167z"/>
	<path style="fill:#2EE3FF;" d="M215.426,295.612H170.37c-1.138,0-2.06,0.922-2.06,2.06v128.713c0,1.137,0.922,2.06,2.06,2.06
		h123.901c1.138,0,2.06-0.922,2.06-2.06v-34.327c0-1.137-0.922-2.06-2.06-2.06h-74.725c-1.138,0-2.06-0.922-2.06-2.06v-90.267
		C217.486,296.535,216.564,295.612,215.426,295.612z"/>
	<path style="fill:#2EE3FF;" d="M431.693,297.464l-16.092,63.71c-0.528,2.092-3.511,2.067-4.004-0.034l-14.93-63.642
		c-0.218-0.931-1.049-1.589-2.006-1.589h-76.988c-1.138,0-2.06,0.922-2.06,2.06v128.675c0,1.137,0.922,2.06,2.06,2.06h41.833
		c1.138,0,2.06-0.922,2.06-2.06V346.06c0-2.352,3.308-2.866,4.023-0.626l26.114,81.836c0.272,0.854,1.066,1.434,1.963,1.434h40.178
		c0.897,0,1.691-0.58,1.963-1.434l26.35-82.657c0.714-2.241,4.023-1.727,4.023,0.625v81.406c0,1.137,0.922,2.06,2.06,2.06h41.698
		c1.138,0,2.06-0.922,2.06-2.06V297.969c0-1.137-0.922-2.06-2.06-2.06H433.69C432.747,295.909,431.924,296.55,431.693,297.464z"/>
</g>
<path style="fill:#21AADB;" d="M88.998,353.77l51.632-53.853c1.351-1.409,0.352-3.75-1.601-3.75h-15.233
	c-0.606,0-1.186,0.248-1.604,0.686l-54.548,57.125c-1.394,1.461-1.406,3.755-0.027,5.23L132.893,429h20.838
	c1.816,0,2.744-2.178,1.486-3.486L89,356.622C88.234,355.826,88.234,354.568,88.998,353.77z"/>
<path style="fill:#2EE3FF;" d="M355.93,273.773v-32.111c0-1.137-0.922-2.06-2.06-2.06H158.13c-1.138,0-2.06,0.922-2.06,2.06v30.052
	c0,1.137,0.922,2.06,2.06,2.06h197.8V273.773z"/>
<path style="fill:#21AADB;" d="M355.93,273.773v-32.111c0-1.137-0.922-2.06-2.06-2.06h-23.694v34.171H355.93L355.93,273.773z"/>
<g>
	<path style="fill:#2EE3FF;" d="M216.536,161.143c-15.905,0-28.738,12.926-28.738,28.836c0,15.889,12.833,28.814,28.738,28.814
		c15.888,0,28.819-12.925,28.819-28.814C245.356,174.069,232.424,161.143,216.536,161.143z"/>
	<path style="fill:#2EE3FF;" d="M136.205,161.143c-15.905,0-28.738,12.926-28.738,28.836c0,15.889,12.833,28.814,28.738,28.814
		c15.888,0,28.819-12.925,28.819-28.814C165.024,174.069,152.093,161.143,136.205,161.143z"/>
	<path style="fill:#2EE3FF;" d="M296.168,161.143c-15.905,0-28.755,12.926-28.755,28.836c0,15.889,12.85,28.814,28.755,28.814
		c15.918,0,28.776-12.925,28.776-28.814C324.944,174.069,312.086,161.143,296.168,161.143z"/>
	<path style="fill:#2EE3FF;" d="M375.795,161.143c-15.88,0-28.751,12.926-28.751,28.836c0,15.889,12.871,28.814,28.751,28.814
		c15.906,0,28.738-12.925,28.738-28.814C404.533,174.069,391.701,161.143,375.795,161.143z"/>
	<path style="fill:#2EE3FF;" d="M284.845,100.675h-13.561c-1.138,0-2.06-0.922-2.06-2.06V85.06c0-1.137-0.922-2.06-2.06-2.06
		h-22.326c-1.138,0-2.06,0.922-2.06,2.06v13.556c0,1.137-0.922,2.06-2.06,2.06h-13.561c-1.138,0-2.06,0.922-2.06,2.06v22.316
		c0,1.137,0.922,2.06,2.06,2.06h13.561c1.138,0,2.06,0.922,2.06,2.06v13.556c0,1.137,0.922,2.06,2.06,2.06h22.326
		c1.138,0,2.06-0.922,2.06-2.06V129.17c0-1.137,0.922-2.06,2.06-2.06h13.561c1.138,0,2.06-0.922,2.06-2.06v-22.316
		C286.905,101.597,285.983,100.675,284.845,100.675z"/>
</g>
<g>
	<path style="fill:#21AADB;" d="M512,428.445V298.226c0-1.137-0.922-2.06-2.06-2.06h-23.694v132.278L512,428.445L512,428.445z"/>
	<path style="fill:#21AADB;" d="M296.332,392.007c0-1.137-0.922-2.06-2.06-2.06h-23.694v38.497h23.694c1.138,0,2.06-0.922,2.06-2.06
		V392.007z"/>
</g>
<g>
</g>
<g>
</g>
<g>
</g>
<g>
</g>
<g>
</g>
<g>
</g>
<g>
</g>
<g>
</g>
<g>
</g>
<g>
</g>
<g>
</g>
<g>
</g>
<g>
</g>
<g>
</g>
<g>
</g>
</svg>
