<?xml version="1.0" encoding="iso-8859-1"?>
<!-- Generator: Adobe Illustrator 19.0.0, SVG Export Plug-In . SVG Version: 6.00 Build 0)  -->
<svg version="1.1" id="Capa_1" xmlns="http://www.w3.org/2000/svg" xmlns:xlink="http://www.w3.org/1999/xlink" x="0px" y="0px"
	 viewBox="0 0 512 512" style="enable-background:new 0 0 512 512;" xml:space="preserve">
<path style="fill:#E2001A;" d="M512,237.91v18.076H58.931l5.534-19.016c0.514-1.764,2.131-2.978,3.969-2.978h62.015
	c4.706,0,8.822-3.867,9.983-9.36l12.055-43.263c1.646-7.818-3.271-15.403-9.983-15.403h-53c-2.868,0-4.864-2.849-3.885-5.544
	l5.037-13.864c0.594-1.634,2.146-2.722,3.885-2.722h110.566c12.346,0,21.274,11.79,17.918,23.685l-7.286,27.891
	c-0.802,2.853-1.182,5.683-1.182,8.472c0,16.586,13.444,31.017,31.067,31.017c14.098,0,26.424-9.508,30.012-23.157l20.809-84.352
	c4.854-18.783-9.328-37.101-28.703-37.101H112.53c-2.779,0-4.766-2.687-3.952-5.344l3.993-13.025
	c0.532-1.736,2.136-2.922,3.952-2.922h209.391c0,0,116.358-0.623,129.039,123.126c2.225,21.713,19.239,38.977,40.949,40.997
	c3.664,0.341,7.663,0.568,12.027,0.655C510.186,233.825,512,235.654,512,237.91z"/>
<path style="fill:#2C44BF;" d="M512,255.987v16.708c0,2.231-1.777,4.046-4.007,4.125c-49.129,1.737-68.838,35.064-68.838,35.064
	c-70.629,136.489-205.704,131.088-205.704,131.088H4.136c-2.809,0-4.8-2.742-3.93-5.413l4.281-13.137
	c0.554-1.701,2.141-2.852,3.93-2.852h181.397c17.539,0,29.981-3.149,34.35-20.157l20.148-82.703
	c4.96-19.353-9.687-38.094-29.653-38.094c-20.547,0-29.379,21.491-31.363,27.851l-14.383,45.686
	c-3.335,10.713-13.254,18.023-24.461,18.023H25.861c-2.817,0-4.808-2.755-3.925-5.429l5.345-16.171
	c0.559-1.693,2.142-2.836,3.925-2.836h67.146c4.706,0,8.822-3.846,9.983-9.36l12.981-44.159c1.646-7.818-3.271-15.403-9.983-15.403
	L57.044,278.6c-2.82-0.011-4.801-2.781-3.9-5.453l5.788-17.16L512,255.987L512,255.987z"/>
<g>
	<path style="fill:#C7232C;" d="M495.902,233.124c-21.709-2.02-38.724-19.285-40.949-40.998
		C442.272,68.378,325.914,69.001,325.914,69.001h-26.213c6.776,0.027,128.731,2.184,128.731,123.126
		c0,32.137,26.464,61.75,48.153,63.859H512V237.91c0-2.257-1.814-4.086-4.071-4.131
		C503.565,233.692,499.566,233.465,495.902,233.124z"/>
	<path style="fill:#C7232C;" d="M189.217,195.413c-0.802,2.853-1.182,5.683-1.182,8.472c0,16.586,13.444,31.017,31.067,31.017
		c4.692,0,9.177-1.073,13.22-2.981c-10.654-5.062-17.765-15.976-17.765-28.036c0-2.789,0.38-5.62,1.182-8.472l7.286-27.891
		c3.355-11.895-5.572-23.685-17.919-23.685h-26.522c12.346,0,21.274,11.79,17.918,23.685L189.217,195.413z"/>
</g>
<g>
	<path style="fill:#263AA3;" d="M156.775,308.467l-14.383,45.686c-3.335,10.712-13.254,18.023-24.461,18.023h26.522
		c11.207,0,21.127-7.311,24.461-18.023l14.383-45.686c1.509-4.836,6.982-18.41,18.547-24.643c-4.092-2.045-8.734-3.208-13.706-3.208
		C167.591,280.616,158.759,302.107,156.775,308.467z"/>
	<path style="fill:#263AA3;" d="M476.58,255.986c-41.045,0-66.025,60.129-66.025,60.129
		c-62.869,121.493-174.719,126.331-198.996,126.857h21.892c0,0,135.074,5.401,205.704-131.088c0,0,19.709-33.327,68.838-35.064
		c2.23-0.079,4.007-1.894,4.007-4.125v-16.708L476.58,255.986L476.58,255.986z"/>
</g>
<g>
</g>
<g>
</g>
<g>
</g>
<g>
</g>
<g>
</g>
<g>
</g>
<g>
</g>
<g>
</g>
<g>
</g>
<g>
</g>
<g>
</g>
<g>
</g>
<g>
</g>
<g>
</g>
<g>
</g>
</svg>
