<?xml version="1.0" encoding="iso-8859-1"?>
<!-- Generator: Adobe Illustrator 19.0.0, SVG Export Plug-In . SVG Version: 6.00 Build 0)  -->
<svg version="1.1" id="Capa_1" xmlns="http://www.w3.org/2000/svg" xmlns:xlink="http://www.w3.org/1999/xlink" x="0px" y="0px"
	 viewBox="0 0 512 512" style="enable-background:new 0 0 512 512;" xml:space="preserve">
<g>
	<path style="fill:#F3DB53;" d="M511.838,63.292c0.613-1.61-0.59-3.329-2.311-3.292c-21.423,0.463-133.162,5.195-179.125,53.571
		C282.26,164.239,35.588,412.742,0.708,447.869C-0.812,449.4,0.278,452,2.436,452h152.012c126.044,0,238.998-77.882,283.891-195.744
		L511.838,63.292z"/>
	<path style="fill:#F8B31F;" d="M509.527,60.001c-4.649,0.1-13.556,0.403-25.118,1.308c0.306,0.585,0.393,1.29,0.129,1.984
		l-73.499,192.964C366.146,374.118,253.192,452,127.148,452h27.3c126.044,0,238.998-77.882,283.891-195.744l73.499-192.964
		C512.451,61.682,511.248,59.963,509.527,60.001z"/>
	<path style="fill:#FFFFFF;" d="M488.691,124.061c0,0-166.319,18.343-280.011,113.806l-46.74,47.307
		c0,0,202.165-103.92,303.46-99.963L488.691,124.061z"/>
	<path style="fill:#CFCFCF;" d="M459.864,128.617l-22.518,57.82c9.964-1.11,19.379-1.563,28.053-1.225l23.292-61.151
		C488.691,124.061,477.868,125.256,459.864,128.617z"/>
	<path style="fill:#E82934;" d="M465.395,185.213l-27.053,71.045C393.447,374.116,280.487,452,154.445,452H2.431
		c-2.153,0-3.245-2.6-1.72-4.126c17.544-17.681,88.709-89.366,161.234-162.701C161.944,285.173,364.107,181.252,465.395,185.213z"/>
	<path style="fill:#C7232C;" d="M437.104,186.463l-26.576,69.795C365.632,374.116,252.673,452,126.63,452h27.815
		c126.043,0,239.002-77.884,283.897-195.742l27.053-71.045C456.651,184.871,447.155,185.334,437.104,186.463z"/>
</g>
<g>
</g>
<g>
</g>
<g>
</g>
<g>
</g>
<g>
</g>
<g>
</g>
<g>
</g>
<g>
</g>
<g>
</g>
<g>
</g>
<g>
</g>
<g>
</g>
<g>
</g>
<g>
</g>
<g>
</g>
</svg>
