<?xml version="1.0" encoding="iso-8859-1"?>
<!-- Generator: Adobe Illustrator 19.0.0, SVG Export Plug-In . SVG Version: 6.00 Build 0)  -->
<svg version="1.1" id="Capa_1" xmlns="http://www.w3.org/2000/svg" xmlns:xlink="http://www.w3.org/1999/xlink" x="0px" y="0px"
	 viewBox="0 0 512.002 512.002" style="enable-background:new 0 0 512.002 512.002;" xml:space="preserve">
<g>
	<path style="fill:#2C44BF;" d="M476.085,238.354c-42.366,28.896-122.4,53.937-141.711,59.736c-1.258,0.378-1.25,2.169,0.01,2.54
		c50.98,15.052,87.727,19.921,91.18,20.359c0.183,0.023,0.348,0.01,0.525-0.044c2.331-0.706,20.259-6.372,47.604-21.593
		c26.19-14.579,38.854-34.271,38.291-36.92C505.38,231.372,476.085,238.354,476.085,238.354L476.085,238.354z"/>
	<path style="fill:#263AA3;" d="M511.984,262.432c-6.604-31.06-35.898-24.078-35.898-24.078c-2.093,1.428-4.282,2.846-6.547,4.253
		c7.924,3.597,14.534,9.682,16.691,19.826c0.563,2.649-24.859,21.809-57.349,36.92c-15.346,7.137-29.43,12.035-39.676,15.18
		c20.946,4.428,34.342,6.201,36.36,6.457c0.183,0.023,0.348,0.01,0.525-0.044c2.331-0.706,20.26-6.372,47.604-21.593
		C499.883,284.773,512.547,265.081,511.984,262.432z"/>
	<path style="fill:#E82934;" d="M511.984,262.432c0,0-2.287-8.632-11.169-15.249c-9.718-7.24-16.996-7.807-26.326-8.83
		c-13.573-1.488-29.515-1.606-31.11-1.606c-4.786,0-297.127,11.247-356.157-0.791c-35.695-6.841-69.19-19.76-85.604-26.672
		c-2.595-1.093-1.904-4.971,0.907-5.085C68.877,201.511,298.087,191,342.068,191c97.547,0,125.213,4.783,148.378,28.09
		c2.524,2.54,11.904,14.992,15.632,22.935C511.645,253.886,511.984,262.432,511.984,262.432L511.984,262.432z"/>
	<path style="fill:#C7232C;" d="M506.078,242.025c-3.728-7.943-13.108-20.395-15.632-22.935
		C467.281,195.783,439.615,191,342.068,191c-2.277,0-5.059,0.029-8.281,0.082c81.323,0.714,106.679,6.398,128.157,28.008
		c2.174,2.187,9.424,11.719,13.778,19.399c8.747,0.952,15.809,1.779,25.093,8.695c8.882,6.616,11.169,15.248,11.169,15.248
		S511.645,253.886,506.078,242.025z"/>
</g>
<g>
</g>
<g>
</g>
<g>
</g>
<g>
</g>
<g>
</g>
<g>
</g>
<g>
</g>
<g>
</g>
<g>
</g>
<g>
</g>
<g>
</g>
<g>
</g>
<g>
</g>
<g>
</g>
<g>
</g>
</svg>
