<?xml version="1.0" encoding="iso-8859-1"?>
<!-- Generator: Adobe Illustrator 19.0.0, SVG Export Plug-In . SVG Version: 6.00 Build 0)  -->
<svg version="1.1" id="Capa_1" xmlns="http://www.w3.org/2000/svg" xmlns:xlink="http://www.w3.org/1999/xlink" x="0px" y="0px"
	 viewBox="0 0 511.999 511.999" style="enable-background:new 0 0 511.999 511.999;" xml:space="preserve">
<g>
	<g>
		<path style="fill:#E82934;" d="M487.028,2.35c-4.394,34.741-47.883,84.261-105.207,86.541
			c-32.865,1.306-68.414,10.209-95.34,29.103c-18.853,14.551-35.332,31.124-45.447,52.671c-6.395,13.805-8.426,27.6-8.426,42.172
			c-2.029,45.553-0.202,94.512-1.847,141.365c-0.227,6.454-1.903,12.773-4.839,18.524c-1.002,1.963-2.036,3.938-3.005,6.042
			c-16.676,24.273-39.436,37.695-72.145,37.695c-20.202-0.215-45.166-10.485-61.916-28.521
			c-11.336-12.206-17.319-28.446-17.184-45.103l0.985-121.74c-1.088-8.644,0-21.216-16.717-21.216H29.023
			c-2.311,0-4.177-1.886-4.146-4.208l0.207-15.412c0.03-2.27,1.879-4.094,4.149-4.094h39.412c3.343,0,6.125-2.613,6.281-5.952
			c0.197-4.229,0.083-9.885,0.259-15.098c0.311-9.411,7.338-17.288,16.666-18.573c14.8-2.042,34.409,2.477,50.453,1.866
			c9.442-0.352,17.671-2.477,22.957-8.789c1.275-1.524,3.762-0.529,3.638,1.461c-0.383,6.675-1.41,15.629-4.135,19.744
			c-14.562,21.982-47.313,19.06-56.785,17.692c-0.021-0.01-0.031-0.01-0.052-0.01c-0.29-0.041-0.56-0.083-0.798-0.124
			c-0.933-0.145-1.772,0.58-1.772,1.524l-0.021,6.716v0.021c0,1.586,1.125,2.939,2.682,3.24c6.35,1.226,21.684,6.251,21.684,26.713
			c0,0,0.155,117.592,0.041,132.299c-0.041,5.462,1.544,9.856,5.752,12.582c0.041,0.041,0.093,0.073,0.145,0.104h0.01
			c3.203,2.031,7.887,3.099,14.479,2.975c10.447-0.383,18.417-5.078,18.417-16.22c0-8.903,1.72-101.196,2.394-137.16
			c0.166-8.82,0.269-14.251,0.269-14.251c0-20.988,4.996-39.664,13.805-56.112c34.793-64.984,129.086-95.102,209.823-95.102
			c39.218,0,65.543-13.847,88.728-35.145C484.997-0.749,487.277,0.422,487.028,2.35z"/>
		<path style="fill:#E82934;" d="M435.203,153.402c-43.007,16.91-118.763,21.811-118.763,92.303
			c0,22.728-0.914,130.281-1.049,145.968c-0.011,1.274-0.063,2.548-0.209,3.813c-4.011,34.679-34.328,62.518-66.612,74.079
			c-77.269,27.671-128.61-20.227-147.003-41.927c-1.515-1.788,0.627-4.332,2.636-3.124c74.743,44.975,148.103-4.124,158.584-44.961
			c3.559-13.87,3.023-114.383,3.023-163.572c0-56.658,64.363-100.879,152.804-102.952c17.211-0.403,54.64-27.943,64.264-35.839
			c1.505-1.235,3.729,0.096,3.347,2.004C483.063,94.963,471.151,139.268,435.203,153.402z"/>
		<path style="fill:#E82934;" d="M478.862,314.834c-22.323,29.142-66.15,4.143-64.627-22.634c0.245-4.298,7.084,5.343,17.507,0.624
			c8.079-6.064,8.073-13.166,2.71-22.576c-3.37-5.416-17.851-6.741-28.296-3.378c-4.303,1.652-7.002,4.843-8.634,9.165
			l-0.913,104.998c-0.191,21.897-5.976,43.453-17.23,62.24c-9.552,15.946-22.405,30.145-37.832,41.291
			c-11.35,7.003-22.106,14.02-33.972,18.338c-15.084,5.356-30.08,8.41-46.195,8.81c-8.464,0.941-16.84-0.679-26.53-1.277
			c-7.828-2.242-16.165-3.45-23.759-6.298c-2.229-0.836-1.564-4.154,0.813-4.02c20.574,1.158,43.376-1.833,50.84-3.568
			c14.148-4.009,18.175-5.399,28.953-11.476c20.868-12.756,53.173-33.664,57.368-81.335l1.054-139.567
			c0-31.441,21.223-44.323,40.105-50.767c30.131-7.023,55.167-2.003,76.238,23.008C487.73,261.652,493.824,295.304,478.862,314.834z
			"/>
	</g>
	<g>
		<path style="fill:#C7232C;" d="M165.258,129.624c1.279-1.527,3.76-0.531,3.645,1.458c-0.385,6.674-1.413,15.633-4.14,19.746
			c-14.589,22.023-47.433,19.048-56.837,17.684c0.001-0.005,0,0.002,0-0.002c11.359-1.772,23.454-6.509,30.854-17.681
			c1.793-2.715,2.85-7.535,3.472-12.406c0.004-0.003,0.006-0.005,0.009-0.009C151.727,138.065,159.969,135.939,165.258,129.624z"/>
		<path style="fill:#C7232C;" d="M135.64,351.582c-3.12,1.866-8.664,1.549-13.08,1.715c-15.484,0.301-17.821-4.783-17.749-14.401
			c0.114-14.593,0.503-160.023,0.523-162.252c0,1.586,1.15,2.943,2.705,3.244c6.364,1.233,21.661,6.27,21.661,26.709
			c0,0,0.155,117.592,0.041,132.299c-0.041,5.462,1.544,9.856,5.752,12.582C135.536,351.52,135.588,351.551,135.64,351.582z"/>
		<path style="fill:#C7232C;" d="M483.574,0.555c-8.737,8.028-17.92,14.996-28.07,20.566c-14.101,31.497-52.124,65.875-99.67,67.765
			c-32.857,1.307-68.411,10.212-95.336,29.11c-18.848,14.547-35.333,31.117-45.449,52.668c-6.391,13.808-8.42,27.599-8.42,42.177
			c-2.136,47.931,0,99.642-2.136,148.687c-1.626,6.465-4.841,11.338-7.554,17.245c-14.002,20.365-32.279,33.087-57.127,36.653
			c3.753,0.639,7.433,0.997,10.964,1.035c32.713,0,55.464-13.422,72.148-37.688c0.973-2.117,2.011-4.102,3.016-6.076
			c2.928-5.745,4.6-12.055,4.827-18.499c1.647-46.844-0.181-95.808,1.848-141.356c0-14.577,2.029-28.369,8.42-42.177
			c10.117-21.549,26.601-38.121,45.449-52.668c26.924-18.899,62.479-27.804,95.336-29.11c57.333-2.28,100.82-51.794,105.212-86.537
			C487.272,0.425,485.002-0.757,483.574,0.555z"/>
		<path style="fill:#C7232C;" d="M482.875,77.189c-4.558,3.74-15.356,11.886-27.287,19.468c-6.52,19.676-19.948,46.356-46.37,56.745
			c-43.007,16.91-118.763,21.811-118.763,92.303c0,24.531-1.065,147.88-1.065,147.88c-3.099,35.561-33.932,64.209-66.806,75.982
			c-11.564,4.142-22.543,6.579-32.922,7.677c17.479,1.912,37.166,0.109,58.907-7.677c32.285-11.561,62.602-39.401,66.612-74.079
			c0.146-1.265,0.198-2.539,0.209-3.813c0.135-15.687,1.049-123.241,1.049-145.968c0-70.491,75.757-75.392,118.764-92.303
			c35.948-14.135,47.86-58.44,51.02-74.208C486.604,77.285,484.381,75.954,482.875,77.189z"/>
		<path style="fill:#C7232C;" d="M466.462,236.408c-18.793-22.307-40.743-28.702-66.645-24.843
			c15.018,2.646,28.501,10.41,40.661,24.843c21.268,25.244,27.361,58.896,12.401,78.426c-3.852,5.029-8.345,8.445-13.135,10.518
			c13.124,4.941,28.537,3.297,39.12-10.518C493.824,295.304,487.73,261.652,466.462,236.408z"/>
		<path style="fill:#C7232C;" d="M397.523,276.035c1.48-3.92,3.851-6.895,7.487-8.65c-16.003-4.919-33.472,9.944-33.472,39.404
			l-0.913,74.244c-0.191,21.897-5.976,43.453-17.23,62.24c-9.552,15.946-22.406,30.145-37.832,41.291
			c-11.35,7.003-22.106,14.02-33.972,18.338c-12.347,4.384-24.637,7.223-37.529,8.329c6.013,0.592,11.646,1.111,17.319,0.481
			c16.115-0.4,31.111-3.454,46.195-8.81c11.866-4.319,22.622-11.336,33.972-18.338c15.427-11.147,28.281-25.345,37.832-41.291
			c11.253-18.787,17.04-40.343,17.23-62.24L397.523,276.035z"/>
	</g>
</g>
<g>
</g>
<g>
</g>
<g>
</g>
<g>
</g>
<g>
</g>
<g>
</g>
<g>
</g>
<g>
</g>
<g>
</g>
<g>
</g>
<g>
</g>
<g>
</g>
<g>
</g>
<g>
</g>
<g>
</g>
</svg>
