<?xml version="1.0" encoding="iso-8859-1"?>
<!-- Generator: Adobe Illustrator 19.0.0, SVG Export Plug-In . SVG Version: 6.00 Build 0)  -->
<svg version="1.1" id="Capa_1" xmlns="http://www.w3.org/2000/svg" xmlns:xlink="http://www.w3.org/1999/xlink" x="0px" y="0px"
	 viewBox="0 0 512 512" style="enable-background:new 0 0 512 512;" xml:space="preserve">
<g>
	<g>
		<path style="fill:#898889;" d="M35.048,272.714l-13.715-50.09c-1.089-3.262-3.7-7.92-9.795-7.92C5.66,214.704,0,218.431,0,225.653
			c0,2.097,19.374,60.574,19.374,60.574c3.483,10.716,7.902,14.211,16.109,14.211s12.626-3.495,16.109-13.978
			c0,0,19.374-58.71,19.374-60.807c0-7.222-5.442-10.949-11.538-10.949c-6.095,0-8.707,4.659-9.578,7.92l-13.932,50.09H35.048
			L35.048,272.714z"/>
		<path style="fill:#898889;" d="M256.654,181.579c0-7.238,4.572-12.063,10.885-12.063c6.531,0,11.102,4.825,11.102,12.063v106.81
			c0,7.237-4.572,12.062-11.102,12.062c-6.313,0-10.885-4.825-10.885-12.062V181.579L256.654,181.579z"/>
		<path style="fill:#898889;" d="M296.056,227.051c0-7.455,4.572-12.347,11.102-12.347c6.531,0,10.885,4.892,10.885,12.347v60.574
			c0,7.687-4.354,12.813-10.885,12.813s-11.102-5.125-11.102-12.813V227.051L296.056,227.051z"/>
		<path style="fill:#898889;" d="M407.077,287.858c0,7.454-4.789,12.58-11.102,12.58s-11.102-5.125-11.102-12.58v-38.674
			c0-9.319-4.789-15.61-13.932-15.61c-8.925,0-14.367,4.893-14.367,15.61v38.674c0,7.454-4.572,12.58-11.102,12.58
			c-6.313,0-10.885-5.125-10.885-12.58v-35.179c0-26.094,12.844-38.907,36.354-38.907c23.076,0,36.136,12.813,36.136,38.674
			L407.077,287.858L407.077,287.858z"/>
		<path style="fill:#898889;" d="M82.722,226.352c0-7.455,4.789-12.58,11.102-12.58c6.312,0,10.884,5.125,10.884,12.58v38.906
			c0,9.319,4.138,14.68,13.281,14.68c8.925,0,15.236-3.963,15.236-14.68v-38.906c0-7.455,4.572-12.58,11.102-12.58
			c6.313,0,10.885,5.125,10.885,12.58v35.412c0,25.861-12.844,38.907-36.354,38.907c-23.075,0-36.136-13.046-36.136-38.907V226.352
			L82.722,226.352z"/>
		<path style="fill:#898889;" d="M473.712,242.67c0-2.366-4.354-5.718-12.306-5.718c-11.928,0-16.473,7.886-16.473,20.306
			c0,14.195,4.544,19.518,14.201,19.518s14.578-6.703,14.578-20.11V242.67L473.712,242.67z M486.533,220.144
			c6.095,2.72,10.014,6.574,10.014,13.827v68.455c0,24.48-12.409,40.574-40.055,40.574c-13.497,0-31.129-7.48-31.129-17.227
			c0-4.986,3.701-9.52,8.055-9.52c6.965,0,12.19,6.347,24.816,6.347s17.632-6.574,17.632-17.454v-12.921
			c-3.7,3.854-10.448,7.027-20.245,7.027c-20.462,0-34.612-15.64-34.612-41.934c0-25.614,15.891-42.614,40.055-42.614
			C473.255,214.704,481.744,217.877,486.533,220.144L486.533,220.144z"/>
		<path style="fill:#898889;" d="M221.171,247.281c-0.653-11.183-5.442-15.57-15.673-15.57c-10.232,0-15.674,5.642-15.674,15.57
			H221.171z M189.824,266.417c1.306,9.552,7.309,14.652,16.98,14.917c10.88,0.299,16.979-4.427,22.422-4.427
			c4.354,0,8.055,4.893,8.055,9.552c0,9.085-14.585,13.978-30.694,13.978c-23.511,0-38.096-16.541-38.096-43.1
			s14.367-44.031,37.66-44.031c24.599,0,35.483,17.706,35.483,41.701c0,6.756-2.612,11.409-8.925,11.409h-42.885V266.417z"/>
	</g>
	<path style="fill:#FECE41;" d="M512,183.445c0,8.484-5.706,14.446-15.453,14.446c-9.746,0-15.452-5.962-15.452-14.446
		c0-8.483,5.706-14.445,15.452-14.445C506.294,169,512,174.962,512,183.445L512,183.445z"/>
</g>
<g>
</g>
<g>
</g>
<g>
</g>
<g>
</g>
<g>
</g>
<g>
</g>
<g>
</g>
<g>
</g>
<g>
</g>
<g>
</g>
<g>
</g>
<g>
</g>
<g>
</g>
<g>
</g>
<g>
</g>
</svg>
