<?xml version="1.0" encoding="iso-8859-1"?>
<!-- Generator: Adobe Illustrator 19.0.0, SVG Export Plug-In . SVG Version: 6.00 Build 0)  -->
<svg version="1.1" id="Capa_1" xmlns="http://www.w3.org/2000/svg" xmlns:xlink="http://www.w3.org/1999/xlink" x="0px" y="0px"
	 viewBox="0 0 512 512" style="enable-background:new 0 0 512 512;" xml:space="preserve">
<g>
	<g>
		<path style="fill:#2C44BF;" d="M21.713,246.054c-3.404,0-5.348-3.87-3.31-6.589C47.762,200.318,203.796,0,322.569,0
			c59.399,0,96.391,43.392,96.391,83.455c0,39.832-25.654,80.942-80.727,80.942c-28.682,0-53.296-20.475-53.296-48.893
			c0-14.056,10.893-34.637,36.695-34.637c18.662,0,26.681,15.369,28.678,27.208c0.799,4.739,6.592,6.64,9.969,3.212
			c4.541-4.61,8.95-11.976,8.95-23.202c0-23.457-20.327-40.738-46.66-40.738c-79.703,0-182.391,150.716-182.391,150.716h352.684
			c2.964,0,4.964,3.019,3.801,5.737l-17,39.75c-0.65,1.519-2.146,2.504-3.801,2.504L21.713,246.054L21.713,246.054z"/>
		<path style="fill:#2C44BF;" d="M19.138,273.716c-2.799,0-4.791,2.707-3.94,5.366C26.509,314.392,95.025,512,211.917,512
			c58.922,0,86.072-40.95,86.072-80.092c0-44.192-32.315-73.316-70.413-73.316c-40.761,0-49.283,32.242-49.283,40.326
			c0,18.607,14.825,35.918,33.624,35.918c17.873,0,25.817-8.97,29.313-16.146c1.932-3.966,7.586-3.892,9.323,0.163
			c1.411,3.296,2.486,7.597,2.486,13.055c0,15.255-12.324,34.719-41.121,34.719c-74.284,0-109.176-142.303-109.176-142.303h345.355
			c1.683,0,3.198-1.018,3.83-2.574l17.213-42.368c1.101-2.709-0.899-5.668-3.83-5.668H19.138V273.716z"/>
	</g>
	<g>
		<path style="fill:#263AA3;" d="M492.863,198.063H467.06c2.964,0,4.964,3.019,3.801,5.737l-17,39.75
			c-0.65,1.519-2.146,2.505-3.801,2.505h25.803c1.656,0,3.152-0.986,3.801-2.505l17-39.75
			C497.827,201.081,495.827,198.063,492.863,198.063z"/>
		<path style="fill:#263AA3;" d="M309.168,48.7c-3.932-0.88-8.084-1.353-12.402-1.353c-60.991,0-135.44,88.254-167.036,129.695
			c-6.574,8.622-0.406,21.022,10.449,21.022l0,0C140.179,198.063,231.831,63.563,309.168,48.7z"/>
		<path style="fill:#263AA3;" d="M393.158,83.455c0,36.098-21.069,73.245-66.01,79.893c3.594,0.684,7.303,1.049,11.086,1.049
			c55.073,0,80.727-41.109,80.727-80.942C418.961,43.392,381.968,0,322.569,0c-4.174,0-8.395,0.256-12.654,0.735
			C361.574,6.581,393.158,46.438,393.158,83.455z"/>
		<path style="fill:#263AA3;" d="M186.114,466.627c4.737,0,9.019-0.535,12.882-1.483c-65.414-15.065-96.255-140.819-96.255-140.819
			l0,0c-13.141,0-22.393,12.886-18.158,25.303C98.534,390.526,131.791,466.627,186.114,466.627z"/>
		<path style="fill:#263AA3;" d="M227.575,358.593c-4.648,0-8.856,0.437-12.701,1.191c32.118,5.853,57.311,33.109,57.311,72.124
			c0,36.037-23.016,73.605-72.651,79.338c4.066,0.491,8.192,0.754,12.382,0.754c58.922,0,86.072-40.95,86.072-80.092
			C297.988,387.717,265.674,358.593,227.575,358.593z"/>
		<path style="fill:#263AA3;" d="M465.308,273.716h-25.803c2.931,0,4.931,2.959,3.83,5.668l-17.213,42.367
			c-0.632,1.556-2.147,2.574-3.83,2.574h25.803c1.683,0,3.198-1.018,3.83-2.574l17.213-42.367
			C470.239,276.675,468.239,273.716,465.308,273.716z"/>
	</g>
</g>
<g>
</g>
<g>
</g>
<g>
</g>
<g>
</g>
<g>
</g>
<g>
</g>
<g>
</g>
<g>
</g>
<g>
</g>
<g>
</g>
<g>
</g>
<g>
</g>
<g>
</g>
<g>
</g>
<g>
</g>
</svg>
