<?xml version="1.0" encoding="iso-8859-1"?>
<!-- Generator: Adobe Illustrator 19.0.0, SVG Export Plug-In . SVG Version: 6.00 Build 0)  -->
<svg version="1.1" id="Capa_1" xmlns="http://www.w3.org/2000/svg" xmlns:xlink="http://www.w3.org/1999/xlink" x="0px" y="0px"
	 viewBox="0 0 512 512" style="enable-background:new 0 0 512 512;" xml:space="preserve">
<path style="fill:#F10000;" d="M508.772,441.433H141.287c-1.338,0-2.537-0.829-3.012-2.082L37.506,173.372l-16.989-44.84
	L0.212,74.941c-0.799-2.112,0.757-4.373,3.012-4.373h56.607c57.239,0,112.103,22.894,152.417,63.602l298.809,301.763
	C513.077,437.969,511.635,441.433,508.772,441.433z"/>
<path style="fill:#C91D0F;" d="M511.06,435.932L212.25,134.17c-40.314-40.709-95.179-63.602-152.418-63.602H24.033
	c57.239,0,112.103,22.894,152.417,63.602L475.26,435.932c2.017,2.037,0.577,5.5-2.287,5.5h35.799
	C511.635,441.433,513.076,437.969,511.06,435.932z"/>
<path style="fill:#FDFDFD;" d="M377.362,441.433c-0.398,0-0.806-0.118-1.203-0.387c-10.245-6.918-19.964-14.62-30.584-20.957
	c-41.409-26.228-88.349-42.602-136.341-51.38c-6.668,0.043-8.891-5.842-10.792-11.135c-3.662-29.423-16.216-57.782-37.06-79.083
	c-38.273-38.481-92.323-59.589-123.873-105.118l-16.989-44.84c11.158,21.021,26.01,41.096,47.187,52.908
	c31.455,17.224,67.269,24.044,99.507,39.547c26.644,12.114,50.548,29.327,72.369,48.68c6.056,5.981,20.791,14.555,22.165-0.118
	c0.107-1.162-0.054-2.334-0.43-3.443c-1.202-3.54-2.502-7.412-3.683-10.973c-0.279-0.84,0.515-1.635,1.353-1.356
	c13.027,4.378,25.945,9.317,37.533,16.815c5.617,3.841,11.104,7.928,16.506,12.114c1.127,0.882,1.106,2.615-0.065,3.453
	c-23.905,17.181-58.366,9.435-81.208,29.133c-10.471,9.553-5.058,28.025,7.732,32.436c51.128,21.226,101.665,48.917,139.456,90.067
	C380.325,439.314,379.015,441.433,377.362,441.433z"/>
<g>
</g>
<g>
</g>
<g>
</g>
<g>
</g>
<g>
</g>
<g>
</g>
<g>
</g>
<g>
</g>
<g>
</g>
<g>
</g>
<g>
</g>
<g>
</g>
<g>
</g>
<g>
</g>
<g>
</g>
</svg>
